STARTFONT 2.1
COMMENT
COMMENT Converted from OpenType font "FreeUniversal-Regular.ttf" by "otf2bdf 3.0".
COMMENT
FONT -FreeType-FreeUniversal-Medium-R-Normal--40-400-72-72-P-189-ISO10646-1
SIZE 40 72 72
FONTBOUNDINGBOX 54 54 -3 -11
STARTPROPERTIES 19
FOUNDRY "FreeType"
FAMILY_NAME "FreeUniversal"
WEIGHT_NAME "Medium"
SLANT "R"
SETWIDTH_NAME "Normal"
ADD_STYLE_NAME ""
PIXEL_SIZE 40
POINT_SIZE 400
RESOLUTION_X 72
RESOLUTION_Y 72
SPACING "P"
AVERAGE_WIDTH 189
CHARSET_REGISTRY "ISO10646"
CHARSET_ENCODING "1"
FONT_ASCENT 41
FONT_DESCENT 10
COPYRIGHT "(FreeUniversal) Copyright (c) Stephen Wilson 2009    a modification of:    Original Font (SIL Sophia)  Copyright (c) SIL International, 1994-2008.    "
_OTF_FONTFILE "FreeUniversal-Regular.ttf"
_OTF_PSNAME "FreeUniversal-Regular"
ENDPROPERTIES
CHARS 243
STARTCHAR 0020
ENCODING 32
SWIDTH 300 0
DWIDTH 12 0
BBX 0 0 0 0
BITMAP
ENDCHAR
STARTCHAR 0021
ENCODING 33
SWIDTH 350 0
DWIDTH 14 0
BBX 4 30 5 0
BITMAP
F0
F0
F0
F0
F0
F0
F0
F0
F0
F0
F0
F0
F0
F0
F0
F0
F0
F0
F0
F0
F0
F0
F0
00
00
00
F0
F0
F0
F0
ENDCHAR
STARTCHAR 0022
ENCODING 34
SWIDTH 450 0
DWIDTH 18 0
BBX 12 12 3 18
BITMAP
F0F0
F0F0
F0F0
F0F0
F0F0
F0F0
F070
E070
E070
6070
6070
6060
ENDCHAR
STARTCHAR 0023
ENCODING 35
SWIDTH 750 0
DWIDTH 30 0
BBX 26 30 2 0
BITMAP
001C0E00
001C1C00
001C1C00
001C1C00
00381800
00383800
00383800
00703800
00707000
1FFFFFC0
1FFFFF80
1FFFFF80
00E0E000
00E0E000
01C0E000
01C1C000
01C1C000
7FFFFE00
FFFFFE00
FFFFFE00
03038000
07070000
07070000
07070000
0E070000
0E0E0000
0E0E0000
0E0E0000
1C1C0000
1C1C0000
ENDCHAR
STARTCHAR 0024
ENCODING 36
SWIDTH 550 0
DWIDTH 22 0
BBX 20 37 1 -4
BITMAP
006000
006000
006000
03FC00
0FFE00
3FFF00
3FFF80
7C6780
7863C0
F063C0
F063C0
F06000
F06000
F06000
786000
7F6000
3FF000
1FFE00
0FFF80
01FFC0
006FE0
0061E0
0060F0
0060F0
0060F0
F060F0
F060F0
F060F0
7860F0
7C61E0
3FFFC0
1FFF80
0FFF00
006000
006000
006000
006000
ENDCHAR
STARTCHAR 0025
ENCODING 37
SWIDTH 925 0
DWIDTH 37 0
BBX 33 31 2 0
BITMAP
000000E000
0FC000C000
1FF001C000
3FF8018000
783C030000
F03C070000
F01E060000
F01E0E0000
F01E0C0000
F01E1C0000
F01E180000
F01C380000
703C300000
787C700000
3FF8E00000
1FF0C06000
0381C3FC00
000187FE00
00038F0F00
00030E0700
00071E0780
00061E0780
000E1E0780
001C1E0780
001C1E0780
00381E0780
00381E0780
00700F0F00
00600FFE00
00E007FC00
00C001F800
ENDCHAR
STARTCHAR 0026
ENCODING 38
SWIDTH 750 0
DWIDTH 30 0
BBX 27 30 2 1
BITMAP
03FE0000
07FF0000
0F8F8000
0F03C000
1E03C000
1E03C000
1E03C000
1E03C000
1F078000
0F0F8000
0FBF0000
07FC0000
03F80000
07E00F00
0FF00F00
3FF80F00
7C7C0F00
783E0F00
F81F0F00
F00F8E00
F007CE00
F003FE00
F001FE00
F000FC00
F8007C00
7C007E00
7E01FF00
3FFFFF80
1FFFCFC0
07FF03E0
ENDCHAR
STARTCHAR 0027
ENCODING 39
SWIDTH 375 0
DWIDTH 15 0
BBX 4 12 5 18
BITMAP
F0
F0
F0
F0
70
70
70
70
70
70
70
70
ENDCHAR
STARTCHAR 0028
ENCODING 40
SWIDTH 375 0
DWIDTH 15 0
BBX 7 36 4 -5
BITMAP
0E
0E
1C
1C
3C
38
38
78
78
78
70
70
F0
F0
F0
F0
F0
F0
F0
F0
F0
F0
F0
F0
70
70
78
78
78
38
38
3C
1C
1C
0E
0E
ENDCHAR
STARTCHAR 0029
ENCODING 41
SWIDTH 350 0
DWIDTH 14 0
BBX 7 36 4 -5
BITMAP
E0
E0
60
70
70
78
38
38
3C
3C
3C
1C
1C
1C
1E
1E
1E
1E
1E
1E
1E
1E
1C
1C
3C
3C
3C
3C
38
38
78
70
70
E0
E0
E0
ENDCHAR
STARTCHAR 002A
ENCODING 42
SWIDTH 650 0
DWIDTH 26 0
BBX 16 15 5 15
BITMAP
0C30
1C38
0E70
0E70
07E0
03C0
FDBF
FFFF
F3CF
03C0
0660
0E70
1E78
1C38
0C30
ENDCHAR
STARTCHAR 002B
ENCODING 43
SWIDTH 1000 0
DWIDTH 40 0
BBX 24 25 8 0
BITMAP
003800
003800
003800
003800
003800
003800
003800
003800
003800
003800
003800
FFFFFF
FFFFFF
FFFFFF
003800
003800
003800
003800
003800
003800
003800
003800
003800
003800
003800
ENDCHAR
STARTCHAR 002C
ENCODING 44
SWIDTH 275 0
DWIDTH 11 0
BBX 7 10 2 -5
BITMAP
3E
3C
3C
7C
78
78
70
70
E0
E0
ENDCHAR
STARTCHAR 002D
ENCODING 45
SWIDTH 350 0
DWIDTH 14 0
BBX 10 3 2 8
BITMAP
FFC0
FFC0
FFC0
ENDCHAR
STARTCHAR 002E
ENCODING 46
SWIDTH 275 0
DWIDTH 11 0
BBX 4 5 4 0
BITMAP
F0
F0
F0
F0
F0
ENDCHAR
STARTCHAR 002F
ENCODING 47
SWIDTH 400 0
DWIDTH 16 0
BBX 12 33 2 -2
BITMAP
0070
0070
0060
00E0
00E0
00E0
00C0
01C0
01C0
0180
0380
0380
0380
0700
0700
0700
0600
0E00
0E00
0E00
1C00
1C00
1C00
1800
3800
3800
3800
7000
7000
7000
6000
E000
E000
ENDCHAR
STARTCHAR 0030
ENCODING 48
SWIDTH 550 0
DWIDTH 22 0
BBX 18 30 2 1
BITMAP
07F800
1FFE00
3FFF00
3C0F00
780780
780780
700780
700380
F003C0
F003C0
F003C0
F003C0
F003C0
F003C0
F003C0
F003C0
F003C0
F003C0
F003C0
F003C0
F003C0
7003C0
700380
780780
780780
380700
3C0F00
1FFE00
0FFE00
07F800
ENDCHAR
STARTCHAR 0031
ENCODING 49
SWIDTH 550 0
DWIDTH 22 0
BBX 10 30 5 0
BITMAP
07C0
0FC0
1FC0
3FC0
7FC0
FBC0
F3C0
C3C0
03C0
03C0
03C0
03C0
03C0
03C0
03C0
03C0
03C0
03C0
03C0
03C0
03C0
03C0
03C0
03C0
03C0
03C0
03C0
03C0
03C0
03C0
ENDCHAR
STARTCHAR 0032
ENCODING 50
SWIDTH 550 0
DWIDTH 22 0
BBX 17 30 2 1
BITMAP
0FF800
1FFC00
3FFE00
7C0F00
780700
780780
780780
F00780
000780
000780
000780
000F00
001F00
001E00
003E00
007C00
00F800
00F800
01F000
03E000
07C000
0F8000
1F0000
1F0000
3E0000
7C0000
F80000
FFFF80
FFFF80
FFFF80
ENDCHAR
STARTCHAR 0033
ENCODING 51
SWIDTH 550 0
DWIDTH 22 0
BBX 18 30 2 1
BITMAP
07F800
1FFE00
3E1F00
3C0780
7C0380
7803C0
7803C0
7803C0
0003C0
000380
000780
000F00
003E00
03FC00
03F800
03FE00
003F00
000F80
000780
0003C0
0003C0
0003C0
F003C0
F003C0
F803C0
780780
7C0F80
3E1F00
1FFE00
0FF800
ENDCHAR
STARTCHAR 0034
ENCODING 52
SWIDTH 550 0
DWIDTH 22 0
BBX 20 30 1 0
BITMAP
000F80
001F80
001F80
003F80
007F80
007F80
00F780
01E780
01E780
03C780
038780
078780
0F0780
0E0780
1E0780
3C0780
3C0780
780780
F00780
F00780
FFFFF0
FFFFF0
FFFFF0
000780
000780
000780
000780
000780
000780
000780
ENDCHAR
STARTCHAR 0035
ENCODING 53
SWIDTH 550 0
DWIDTH 22 0
BBX 18 30 2 0
BITMAP
7FFF00
7FFF00
7FFF00
780000
780000
780000
780000
780000
780000
780000
786000
7BFC00
7FFE00
7E1F00
7C0780
780780
700380
0003C0
0003C0
0003C0
0003C0
0003C0
0003C0
F003C0
F00780
F00780
780F00
7FFE00
1FFC00
0FF800
ENDCHAR
STARTCHAR 0036
ENCODING 54
SWIDTH 550 0
DWIDTH 22 0
BBX 19 30 2 1
BITMAP
03FC00
0FFF00
1FFF00
3F0F80
3E0780
7C03C0
7803C0
7803C0
F00000
F00000
F00000
F00000
F1FC00
F3FF00
F7FF80
FE0780
FC03C0
FC03C0
F801C0
F801E0
F801E0
F801E0
F801E0
F801E0
7801C0
7C03C0
3C0780
1F0F80
0FFF00
07FC00
ENDCHAR
STARTCHAR 0037
ENCODING 55
SWIDTH 550 0
DWIDTH 22 0
BBX 18 30 2 0
BITMAP
FFFFC0
FFFFC0
FFFFC0
0003C0
0003C0
000780
000780
000780
000F00
000F00
001F00
001E00
001E00
003C00
003C00
003C00
007800
007800
00F800
00F000
00F000
01F000
01E000
01E000
03C000
03C000
07C000
078000
078000
0F8000
ENDCHAR
STARTCHAR 0038
ENCODING 56
SWIDTH 550 0
DWIDTH 22 0
BBX 19 30 2 1
BITMAP
07FC00
1FFE00
3E0F80
3C0780
7803C0
7803C0
7803C0
7803C0
7803C0
7803C0
380380
3C0780
1E0F00
0FFE00
07FC00
1FFE00
3C0780
780380
7001C0
F001C0
F001E0
F001E0
F001E0
F001E0
F001E0
7803C0
7803C0
3E0F80
1FFF00
07FC00
ENDCHAR
STARTCHAR 0039
ENCODING 57
SWIDTH 550 0
DWIDTH 22 0
BBX 19 30 2 1
BITMAP
07FC00
1FFF00
3E1F80
780780
7803C0
7003C0
F003C0
F003E0
F001E0
F001E0
F003E0
F003E0
F003E0
7003E0
7807E0
3C0FE0
3FFDE0
1FF9E0
07F1E0
0001C0
0001C0
0001C0
0003C0
7003C0
700380
780780
380F00
3E1F00
1FFE00
0FF800
ENDCHAR
STARTCHAR 003A
ENCODING 58
SWIDTH 275 0
DWIDTH 11 0
BBX 4 20 4 0
BITMAP
F0
F0
F0
F0
F0
00
00
00
00
00
00
00
00
00
00
F0
F0
F0
F0
F0
ENDCHAR
STARTCHAR 003B
ENCODING 59
SWIDTH 275 0
DWIDTH 11 0
BBX 6 26 2 -6
BITMAP
3C
3C
3C
3C
3C
00
00
00
00
00
00
00
00
00
00
00
3C
3C
3C
38
78
70
70
70
E0
E0
ENDCHAR
STARTCHAR 003C
ENCODING 60
SWIDTH 1000 0
DWIDTH 40 0
BBX 24 21 8 2
BITMAP
000001
00000F
00003F
0001FC
0007E0
003F00
01FC00
07E000
3F0000
FC0000
E00000
F80000
7E0000
0FC000
03F800
007E00
001FC0
0003F0
00007E
00001F
000003
ENDCHAR
STARTCHAR 003D
ENCODING 61
SWIDTH 1000 0
DWIDTH 40 0
BBX 24 10 8 7
BITMAP
FFFFFF
FFFFFF
FFFFFF
000000
000000
000000
000000
FFFFFF
FFFFFF
FFFFFF
ENDCHAR
STARTCHAR 003E
ENCODING 62
SWIDTH 1000 0
DWIDTH 40 0
BBX 24 21 8 2
BITMAP
800000
F00000
FC0000
3F8000
07E000
00FC00
003F00
0007E0
0000FC
00003F
000007
00001F
00007E
0003F0
001FC0
007E00
03F800
0FC000
7E0000
F80000
C00000
ENDCHAR
STARTCHAR 003F
ENCODING 63
SWIDTH 525 0
DWIDTH 21 0
BBX 18 30 1 1
BITMAP
0FF800
1FFE00
3FFF00
7E7F80
F80780
7003C0
0003C0
0003C0
0003C0
000780
000780
000F00
001E00
003C00
007800
01F000
01E000
03C000
03C000
03C000
03C000
03C000
03C000
000000
000000
000000
03C000
03C000
03C000
03C000
ENDCHAR
STARTCHAR 0040
ENCODING 64
SWIDTH 975 0
DWIDTH 39 0
BBX 35 37 2 -7
BITMAP
0007FC0000
003FFF8000
00FFFFF000
01FFFFF800
07F803FC00
0FE0007E00
0F80001F00
1F00000F80
3E00000780
3C000007C0
7807E783C0
780FF783C0
701FFF81E0
F03E1F81E0
F03C0F81E0
F0780781E0
F0780781E0
F0780781E0
F0780781E0
F0780781E0
F0780781E0
F0780781C0
F0780781C0
70380F83C0
783C0F8780
781E1BFF00
7C1FFBFF00
3C0FF0FC00
3E01803000
1F00000000
1F80000000
0FE0000000
07F8008000
03FFFF8000
00FFFF8000
003FFF8000
0007FE0000
ENDCHAR
STARTCHAR 0041
ENCODING 65
SWIDTH 750 0
DWIDTH 30 0
BBX 28 30 1 0
BITMAP
000F0000
001F8000
001F8000
003FC000
003FC000
007FC000
0079E000
0079E000
00F1F000
00F0F000
01F0F000
01E0F800
01E07800
03E07C00
03C03C00
07C03C00
07803E00
07801E00
0F801F00
0FFFFF00
1FFFFF80
1FFFFF80
1E000780
3C0003C0
3C0003C0
7C0003E0
780001E0
780001E0
F00000F0
F00000F0
ENDCHAR
STARTCHAR 0042
ENCODING 66
SWIDTH 650 0
DWIDTH 26 0
BBX 21 30 3 0
BITMAP
FFFE00
FFFF80
FFFFC0
FFFFE0
F007E0
F001F0
F000F0
F000F0
F000F0
F000F0
F000E0
F001E0
F007C0
FFFF80
FFFF00
FFFFC0
F003E0
F000F0
F00070
F00078
F00078
F00078
F00078
F000F8
F001F8
F007F0
FFFFE0
FFFFE0
FFFF80
FFFE00
ENDCHAR
STARTCHAR 0043
ENCODING 67
SWIDTH 650 0
DWIDTH 26 0
BBX 22 30 2 1
BITMAP
01FF80
07FFE0
0FFFF0
1F00F8
3E0078
3C003C
78003C
78003C
780000
700000
F00000
F00000
F00000
F00000
F00000
F00000
F00000
F00000
F00000
F00000
700000
700000
78003C
78003C
3C003C
3C0078
1F00F8
0FFFF0
07FFE0
01FF80
ENDCHAR
STARTCHAR 0044
ENCODING 68
SWIDTH 700 0
DWIDTH 28 0
BBX 23 30 3 0
BITMAP
FFF800
FFFF00
FFFFC0
FFFFE0
F00FF0
F001F8
F000F8
F0007C
F0003C
F0003C
F0001E
F0001E
F0001E
F0001E
F0001E
F0001E
F0001E
F0001E
F0001E
F0001E
F0003C
F0003C
F0007C
F000F8
F001F0
F007F0
FFFFE0
FFFFC0
FFFF00
FFF800
ENDCHAR
STARTCHAR 0045
ENCODING 69
SWIDTH 600 0
DWIDTH 24 0
BBX 19 30 3 0
BITMAP
FFFFC0
FFFFC0
FFFFC0
FFFFC0
F00000
F00000
F00000
F00000
F00000
F00000
F00000
F00000
F00000
FFFFC0
FFFFC0
FFFFC0
FFFFC0
F00000
F00000
F00000
F00000
F00000
F00000
F00000
F00000
F00000
FFFFE0
FFFFE0
FFFFE0
FFFFE0
ENDCHAR
STARTCHAR 0046
ENCODING 70
SWIDTH 575 0
DWIDTH 23 0
BBX 17 30 3 0
BITMAP
FFFF80
FFFF80
FFFF80
FFFF80
F00000
F00000
F00000
F00000
F00000
F00000
F00000
F00000
F00000
FFFF00
FFFF00
FFFF00
FFFF00
F00000
F00000
F00000
F00000
F00000
F00000
F00000
F00000
F00000
F00000
F00000
F00000
F00000
ENDCHAR
STARTCHAR 0047
ENCODING 71
SWIDTH 750 0
DWIDTH 30 0
BBX 25 30 2 1
BITMAP
00FFE000
03FFF800
07FFFC00
0FFFFE00
1F803F00
3E000F00
3C000780
78000780
78000000
70000000
F0000000
F0000000
F0000000
F0000000
F003FF80
F003FF80
F003FF80
F003FF80
F0000780
F0000780
78000780
78000780
7C000780
3E000780
3E000780
1F800780
0FFFFF80
07FFFF80
03FFFF00
00FFF800
ENDCHAR
STARTCHAR 0048
ENCODING 72
SWIDTH 700 0
DWIDTH 28 0
BBX 22 30 3 0
BITMAP
F0003C
F0003C
F0003C
F0003C
F0003C
F0003C
F0003C
F0003C
F0003C
F0003C
F0003C
F0003C
F0003C
FFFFFC
FFFFFC
FFFFFC
FFFFFC
F0003C
F0003C
F0003C
F0003C
F0003C
F0003C
F0003C
F0003C
F0003C
F0003C
F0003C
F0003C
F0003C
ENDCHAR
STARTCHAR 0049
ENCODING 73
SWIDTH 250 0
DWIDTH 10 0
BBX 4 30 3 0
BITMAP
F0
F0
F0
F0
F0
F0
F0
F0
F0
F0
F0
F0
F0
F0
F0
F0
F0
F0
F0
F0
F0
F0
F0
F0
F0
F0
F0
F0
F0
F0
ENDCHAR
STARTCHAR 004A
ENCODING 74
SWIDTH 550 0
DWIDTH 22 0
BBX 17 30 2 0
BITMAP
000780
000780
000780
000780
000780
000780
000780
000780
000780
000780
000780
000780
000780
000780
000780
000780
000780
000780
000780
000780
000780
000780
F00780
F00780
F00F80
781F00
7FFF00
3FFE00
1FFC00
0FF000
ENDCHAR
STARTCHAR 004B
ENCODING 75
SWIDTH 650 0
DWIDTH 26 0
BBX 22 30 3 0
BITMAP
F001F0
F003E0
F007C0
F00F80
F01F00
F01E00
F03C00
F07C00
F0F800
F1F000
F3E000
F7C000
FF8000
FF8000
FFC000
F7C000
F3E000
F3F000
F1F800
F0FC00
F07C00
F03E00
F01F00
F01F80
F00FC0
F007C0
F003E0
F001F0
F001F8
F000FC
ENDCHAR
STARTCHAR 004C
ENCODING 76
SWIDTH 525 0
DWIDTH 21 0
BBX 17 30 3 0
BITMAP
F00000
F00000
F00000
F00000
F00000
F00000
F00000
F00000
F00000
F00000
F00000
F00000
F00000
F00000
F00000
F00000
F00000
F00000
F00000
F00000
F00000
F00000
F00000
F00000
F00000
F00000
FFFF80
FFFF80
FFFF80
FFFF80
ENDCHAR
STARTCHAR 004D
ENCODING 77
SWIDTH 900 0
DWIDTH 36 0
BBX 30 30 3 0
BITMAP
FC0000FC
FE0001FC
FE0001FC
FE0001FC
FF0003FC
FF0003FC
F78007BC
F78007BC
F78007BC
F3C00F3C
F3C00F3C
F3C00E3C
F1E01E3C
F1E01E3C
F0E01C3C
F0F03C3C
F0F03C3C
F078783C
F078783C
F078783C
F03CF03C
F03CF03C
F01CE03C
F01FE03C
F01FE03C
F00FC03C
F00FC03C
F00FC03C
F007803C
F007803C
ENDCHAR
STARTCHAR 004E
ENCODING 78
SWIDTH 700 0
DWIDTH 28 0
BBX 22 30 3 0
BITMAP
FC003C
FC003C
FE003C
FE003C
FF003C
FF003C
FF803C
F7803C
F7C03C
F3C03C
F3E03C
F1E03C
F1F03C
F0F03C
F0F83C
F0783C
F07C3C
F03C3C
F03E3C
F01E3C
F01F3C
F00F3C
F00FBC
F007BC
F003FC
F003FC
F001FC
F001FC
F000FC
F000FC
ENDCHAR
STARTCHAR 004F
ENCODING 79
SWIDTH 750 0
DWIDTH 30 0
BBX 26 30 2 1
BITMAP
01FFE000
03FFF000
0FFFFC00
1FFFFE00
1F003E00
3E001F00
3C000F00
78000780
78000780
70000380
F00003C0
F00003C0
F00003C0
F00003C0
F00003C0
F00003C0
F00003C0
F00003C0
F00003C0
70000380
78000780
78000780
78000F80
3C000F00
3E001F00
1F807E00
0FFFFC00
07FFF800
03FFF000
00FFC000
ENDCHAR
STARTCHAR 0050
ENCODING 80
SWIDTH 600 0
DWIDTH 24 0
BBX 19 30 3 0
BITMAP
FFF800
FFFE00
FFFF80
FFFFC0
F00FC0
F003E0
F001E0
F001E0
F001E0
F001E0
F001E0
F001E0
F003E0
F00FC0
FFFFC0
FFFF80
FFFE00
FFF800
F00000
F00000
F00000
F00000
F00000
F00000
F00000
F00000
F00000
F00000
F00000
F00000
ENDCHAR
STARTCHAR 0051
ENCODING 81
SWIDTH 775 0
DWIDTH 31 0
BBX 28 30 2 1
BITMAP
00FFC000
03FFF000
0FFFFC00
1FFFFE00
1F003E00
3E001F00
3C000F80
78000780
78000780
700003C0
F00003C0
F00003C0
F00003C0
F00003C0
F00003C0
F00003C0
F00003C0
F00003C0
F00003C0
70000380
78000780
78000780
78000F00
3C000F00
3E001E00
1F807E00
0FFFFFF0
07FFFFF0
03FFFFF0
00FFFFF0
ENDCHAR
STARTCHAR 0052
ENCODING 82
SWIDTH 625 0
DWIDTH 25 0
BBX 20 30 3 0
BITMAP
FFFC00
FFFF00
FFFFC0
FFFFE0
F007E0
F001E0
F000F0
F000F0
F000F0
F000F0
F000E0
F001E0
F007C0
FFFF80
FFFF00
FFFF00
FFFF80
F007C0
F003C0
F003C0
F001E0
F001E0
F001E0
F001E0
F000E0
F000E0
F000F0
F000F0
F000F0
F00070
ENDCHAR
STARTCHAR 0053
ENCODING 83
SWIDTH 650 0
DWIDTH 26 0
BBX 22 30 2 1
BITMAP
03FF00
0FFFC0
3FFFE0
3FFFF0
7C00F0
780078
F00078
F00078
F00000
F00000
780000
7C0000
3F8000
1FFC00
0FFF80
00FFE0
0007F0
0000F8
000078
000038
00003C
F0003C
F0003C
F0003C
780078
7C00F8
3FFFF0
3FFFF0
1FFFC0
07FF00
ENDCHAR
STARTCHAR 0054
ENCODING 84
SWIDTH 625 0
DWIDTH 25 0
BBX 23 30 1 0
BITMAP
FFFFFE
FFFFFE
FFFFFE
FFFFFE
007800
007800
007800
007800
007800
007800
007800
007800
007800
007800
007800
007800
007800
007800
007800
007800
007800
007800
007800
007800
007800
007800
007800
007800
007800
007800
ENDCHAR
STARTCHAR 0055
ENCODING 85
SWIDTH 725 0
DWIDTH 29 0
BBX 23 30 3 0
BITMAP
F0001E
F0001E
F0001E
F0001E
F0001E
F0001E
F0001E
F0001E
F0001E
F0001E
F0001E
F0001E
F0001E
F0001E
F0001E
F0001E
F0001E
F0001E
F0001E
F0001E
F0001E
F0001E
78003C
78003C
7C007C
3E00F8
3FFFF8
1FFFF0
0FFFE0
03FF80
ENDCHAR
STARTCHAR 0056
ENCODING 86
SWIDTH 650 0
DWIDTH 26 0
BBX 24 30 1 0
BITMAP
F0000F
F8000F
F8001F
78001E
7C001E
7C003E
3C003C
3E003C
1E007C
1E0078
1F0078
0F00F8
0F00F0
0F00F0
0781F0
0781E0
0781E0
03C3E0
03C3C0
03C3C0
01E7C0
01E780
01E780
00FF80
00FF00
00FF00
007E00
007E00
007E00
003C00
ENDCHAR
STARTCHAR 0057
ENCODING 87
SWIDTH 975 0
DWIDTH 39 0
BBX 37 30 1 0
BITMAP
F000F80078
F000F80078
F001F800F8
7801FC00F0
7801FC00F0
7801DC00F0
7C03DE01E0
3C03DE01E0
3C03DE01E0
3C038E01E0
1E078F03C0
1E078F03C0
1E070F03C0
1E07070380
0F0F078780
0F0F078780
0F0E038780
070E038700
079E03CF00
079E03CF00
079C01CE00
039C01DE00
03FC01FE00
03FC01FE00
01F800FC00
01F800FC00
01F800FC00
01F000F800
00F0007800
00F0007800
ENDCHAR
STARTCHAR 0058
ENCODING 88
SWIDTH 700 0
DWIDTH 28 0
BBX 26 30 1 0
BITMAP
3E000F00
3E001F00
1F001E00
0F803C00
0F807C00
07C07800
03E0F000
03E0F000
01F1E000
00F3E000
00FBC000
007F8000
003F8000
003F0000
003F0000
003F8000
007F8000
00F7C000
00F3E000
01E3E000
03E1F000
03C0F800
0780F800
0F807C00
0F003E00
1F003E00
3E001F00
3C001F00
7C000F80
F80007C0
ENDCHAR
STARTCHAR 0059
ENCODING 89
SWIDTH 650 0
DWIDTH 26 0
BBX 24 30 1 0
BITMAP
F8000F
F8001F
7C001E
7C003C
3E007C
1E0078
1F00F8
0F00F0
0F81E0
0781E0
03C3C0
03E3C0
01E780
01F700
00FF00
00FE00
007E00
003C00
003C00
003C00
003C00
003C00
003C00
003C00
003C00
003C00
003C00
003C00
003C00
003C00
ENDCHAR
STARTCHAR 005A
ENCODING 90
SWIDTH 625 0
DWIDTH 25 0
BBX 21 30 2 0
BITMAP
7FFFF8
7FFFF8
7FFFF8
7FFFF8
0000F8
0001F8
0001F0
0003E0
0007C0
000F80
001F80
001F00
003E00
007C00
00FC00
00F800
01F000
03E000
07C000
0FC000
0F8000
1F0000
3E0000
7E0000
FC0000
F80000
FFFFF8
FFFFF8
FFFFF8
FFFFF8
ENDCHAR
STARTCHAR 005B
ENCODING 91
SWIDTH 400 0
DWIDTH 16 0
BBX 8 38 4 -8
BITMAP
FF
FF
FF
F0
F0
F0
F0
F0
F0
F0
F0
F0
F0
F0
F0
F0
F0
F0
F0
F0
F0
F0
F0
F0
F0
F0
F0
F0
F0
F0
F0
F0
F0
F0
F0
FF
FF
FF
ENDCHAR
STARTCHAR 005C
ENCODING 92
SWIDTH 400 0
DWIDTH 16 0
BBX 12 33 2 -2
BITMAP
E000
E000
E000
6000
7000
7000
3000
3800
3800
3800
1C00
1C00
1C00
0C00
0E00
0E00
0600
0700
0700
0700
0300
0380
0380
0180
01C0
01C0
01C0
00C0
00E0
00E0
0060
0070
0070
ENDCHAR
STARTCHAR 005D
ENCODING 93
SWIDTH 400 0
DWIDTH 16 0
BBX 8 38 4 -8
BITMAP
FF
FF
FF
0F
0F
0F
0F
0F
0F
0F
0F
0F
0F
0F
0F
0F
0F
0F
0F
0F
0F
0F
0F
0F
0F
0F
0F
0F
0F
0F
0F
0F
0F
0F
0F
FF
FF
FF
ENDCHAR
STARTCHAR 005E
ENCODING 94
SWIDTH 1000 0
DWIDTH 40 0
BBX 20 25 10 0
BITMAP
006000
00F000
00F000
00F000
01F800
019800
039C00
030C00
030C00
070E00
060600
060600
0E0700
0C0300
1C0380
1C0180
180180
3801C0
3000C0
3000C0
7000E0
600060
E00070
E00070
C00030
ENDCHAR
STARTCHAR 005F
ENCODING 95
SWIDTH 500 0
DWIDTH 20 0
BBX 20 3 0 -5
BITMAP
FFFFF0
FFFFF0
FFFFF0
ENDCHAR
STARTCHAR 0060
ENCODING 96
SWIDTH 225 0
DWIDTH 9 0
BBX 8 7 -1 25
BITMAP
F0
78
38
1C
0E
0E
07
ENDCHAR
STARTCHAR 0061
ENCODING 97
SWIDTH 575 0
DWIDTH 23 0
BBX 18 20 2 1
BITMAP
0FFE00
3FFF00
3E0F80
780780
7803C0
0003C0
0003C0
03FFC0
0FFFC0
3FFFC0
7E03C0
7803C0
F003C0
F003C0
F007C0
F007C0
F80FC0
7C3FC0
3FFBC0
1FE3C0
ENDCHAR
STARTCHAR 0062
ENCODING 98
SWIDTH 600 0
DWIDTH 24 0
BBX 19 30 3 0
BITMAP
F00000
F00000
F00000
F00000
F00000
F00000
F00000
F00000
F00000
F00000
F3FC00
F7FF00
FF0F80
FC0780
F803C0
F803C0
F001C0
F001E0
F001E0
F001E0
F001E0
F001E0
F001C0
F003C0
F003C0
F80780
FC0780
FE1F00
F7FE00
F3FC00
ENDCHAR
STARTCHAR 0063
ENCODING 99
SWIDTH 525 0
DWIDTH 21 0
BBX 17 20 2 1
BITMAP
0FFC00
1FFE00
3E1F00
780F80
780780
F00780
F00000
F00000
F00000
F00000
F00000
F00000
F00000
F00780
700780
780780
780F00
3E1F00
1FFE00
0FFC00
ENDCHAR
STARTCHAR 0064
ENCODING 100
SWIDTH 600 0
DWIDTH 24 0
BBX 19 30 2 0
BITMAP
0001E0
0001E0
0001E0
0001E0
0001E0
0001E0
0001E0
0001E0
0001E0
0001E0
0FF9E0
1FFDE0
3E1FE0
3C07E0
7807E0
7803E0
F001E0
F001E0
F001E0
F001E0
F001E0
F001E0
F001E0
F001E0
7803E0
7803E0
3C07E0
1F0FE0
0FFFE0
07F9E0
ENDCHAR
STARTCHAR 0065
ENCODING 101
SWIDTH 550 0
DWIDTH 22 0
BBX 18 20 2 1
BITMAP
07FC00
1FFE00
3E1F00
3C0780
780380
7003C0
F003C0
F003C0
FFFFC0
FFFFC0
FFFFC0
F00000
F00000
F00000
7003C0
780780
380780
3E1F00
1FFE00
07FC00
ENDCHAR
STARTCHAR 0066
ENCODING 102
SWIDTH 350 0
DWIDTH 14 0
BBX 13 30 1 0
BITMAP
01F8
03F8
07F8
0F80
0F00
0F00
0F00
0F00
0F00
0F00
FFF0
FFF0
FFF0
0F00
0F00
0F00
0F00
0F00
0F00
0F00
0F00
0F00
0F00
0F00
0F00
0F00
0F00
0F00
0F00
0F00
ENDCHAR
STARTCHAR 0067
ENCODING 103
SWIDTH 600 0
DWIDTH 24 0
BBX 19 28 2 -7
BITMAP
0FF9E0
1FFDE0
3E1FE0
7807E0
7803E0
7003E0
F001E0
F001E0
F001E0
F001E0
F001E0
F001E0
F001E0
F003E0
7803E0
7C07E0
3E0FE0
1FFDE0
0FF9E0
0081E0
0001E0
0003C0
7803C0
7803C0
3C0780
3FFF00
0FFE00
03F800
ENDCHAR
STARTCHAR 0068
ENCODING 104
SWIDTH 600 0
DWIDTH 24 0
BBX 18 30 3 0
BITMAP
F00000
F00000
F00000
F00000
F00000
F00000
F00000
F00000
F00000
F00000
F3FE00
F7FF00
FE1F80
F80780
F00780
F003C0
F003C0
F003C0
F003C0
F003C0
F003C0
F003C0
F003C0
F003C0
F003C0
F003C0
F003C0
F003C0
F003C0
F003C0
ENDCHAR
STARTCHAR 0069
ENCODING 105
SWIDTH 200 0
DWIDTH 8 0
BBX 4 30 2 0
BITMAP
F0
F0
F0
F0
00
00
00
00
00
00
F0
F0
F0
F0
F0
F0
F0
F0
F0
F0
F0
F0
F0
F0
F0
F0
F0
F0
F0
F0
ENDCHAR
STARTCHAR 006A
ENCODING 106
SWIDTH 275 0
DWIDTH 11 0
BBX 7 38 2 -8
BITMAP
1E
1E
1E
1E
00
00
00
00
00
00
1E
1E
1E
1E
1E
1E
1E
1E
1E
1E
1E
1E
1E
1E
1E
1E
1E
1E
1E
1E
1E
1E
1E
1E
1E
FE
FC
F8
ENDCHAR
STARTCHAR 006B
ENCODING 107
SWIDTH 500 0
DWIDTH 20 0
BBX 16 30 3 0
BITMAP
F000
F000
F000
F000
F000
F000
F000
F000
F000
F000
F01E
F03E
F07C
F0F8
F1F0
F3E0
F7C0
FF80
FF00
FF00
F780
F7C0
F3E0
F1F0
F0F0
F0F8
F07C
F03E
F01E
F01F
ENDCHAR
STARTCHAR 006C
ENCODING 108
SWIDTH 250 0
DWIDTH 10 0
BBX 4 30 3 0
BITMAP
F0
F0
F0
F0
F0
F0
F0
F0
F0
F0
F0
F0
F0
F0
F0
F0
F0
F0
F0
F0
F0
F0
F0
F0
F0
F0
F0
F0
F0
F0
ENDCHAR
STARTCHAR 006D
ENCODING 109
SWIDTH 900 0
DWIDTH 36 0
BBX 30 20 3 1
BITMAP
F3FC1FE0
F7FE3FF0
FE1F70F8
FC0FE078
F807C03C
F007803C
F007803C
F007803C
F007803C
F007803C
F007803C
F007803C
F007803C
F007803C
F007803C
F007803C
F007803C
F007803C
F007803C
F007803C
ENDCHAR
STARTCHAR 006E
ENCODING 110
SWIDTH 600 0
DWIDTH 24 0
BBX 18 20 3 1
BITMAP
F3FE00
F7FF00
FE1F80
F80780
F80780
F003C0
F003C0
F003C0
F003C0
F003C0
F003C0
F003C0
F003C0
F003C0
F003C0
F003C0
F003C0
F003C0
F003C0
F003C0
ENDCHAR
STARTCHAR 006F
ENCODING 111
SWIDTH 600 0
DWIDTH 24 0
BBX 20 20 2 1
BITMAP
07FC00
0FFF00
3F0F80
3C03C0
7803E0
7801E0
F001E0
F000F0
F000F0
F000F0
F000F0
F000F0
F000F0
F001E0
7801E0
7803E0
3C03C0
3F0F80
0FFF00
07FE00
ENDCHAR
STARTCHAR 0070
ENCODING 112
SWIDTH 600 0
DWIDTH 24 0
BBX 19 28 3 -7
BITMAP
F3FE00
F7FF00
FE0F80
FC07C0
F803C0
F803C0
F001E0
F001E0
F001E0
F001E0
F001E0
F001E0
F001E0
F001E0
F803C0
F803C0
FC07C0
FE0F80
F7FF00
F3FE00
F00000
F00000
F00000
F00000
F00000
F00000
F00000
F00000
ENDCHAR
STARTCHAR 0071
ENCODING 113
SWIDTH 600 0
DWIDTH 24 0
BBX 19 28 2 -7
BITMAP
0FF9E0
1FFDE0
3E0FE0
7C07E0
7803E0
7803E0
F001E0
F001E0
F001E0
F001E0
F001E0
F001E0
F001E0
F001E0
7803E0
7803E0
7C07E0
3E0FE0
1FFDE0
0FF9E0
0001E0
0001E0
0001E0
0001E0
0001E0
0001E0
0001E0
0001E0
ENDCHAR
STARTCHAR 0072
ENCODING 114
SWIDTH 375 0
DWIDTH 15 0
BBX 11 20 3 0
BITMAP
F3E0
F7E0
FFE0
FE00
F800
F800
F000
F000
F000
F000
F000
F000
F000
F000
F000
F000
F000
F000
F000
F000
ENDCHAR
STARTCHAR 0073
ENCODING 115
SWIDTH 500 0
DWIDTH 20 0
BBX 16 20 2 1
BITMAP
1FF8
3FFE
7C3E
F81F
F00F
F000
F000
7C00
7FC0
3FF8
0FFE
007E
001F
000F
F00F
F00F
F01F
7C3E
7FFC
1FF8
ENDCHAR
STARTCHAR 0074
ENCODING 116
SWIDTH 350 0
DWIDTH 14 0
BBX 12 25 1 1
BITMAP
0E00
1E00
1E00
1E00
1E00
FFF0
FFF0
FFF0
1E00
1E00
1E00
1E00
1E00
1E00
1E00
1E00
1E00
1E00
1E00
1E00
1E00
1E00
0F00
0FF0
07F0
ENDCHAR
STARTCHAR 0075
ENCODING 117
SWIDTH 600 0
DWIDTH 24 0
BBX 18 20 3 0
BITMAP
F003C0
F003C0
F003C0
F003C0
F003C0
F003C0
F003C0
F003C0
F003C0
F003C0
F003C0
F003C0
F003C0
F003C0
F003C0
F007C0
780FC0
7E1FC0
3FFBC0
1FF3C0
ENDCHAR
STARTCHAR 0076
ENCODING 118
SWIDTH 525 0
DWIDTH 21 0
BBX 20 20 1 0
BITMAP
F000F0
F001E0
7801E0
7801C0
7C03C0
3C03C0
3C0780
1E0780
1E0700
0F0F00
0F0E00
0F0E00
079E00
079C00
03FC00
03F800
03F800
01F800
01F000
00F000
ENDCHAR
STARTCHAR 0077
ENCODING 119
SWIDTH 825 0
DWIDTH 33 0
BBX 31 20 1 0
BITMAP
F007C01E
F00FC01C
F00FC03C
780FE03C
781EE038
781EE078
381CF078
3C1C7070
3C3C7070
1C3878F0
1E3838E0
1E7838E0
0E7039E0
0F701DC0
0FF01DC0
07E01FC0
07E01F80
07E00F80
03C00F80
03C00F00
ENDCHAR
STARTCHAR 0078
ENCODING 120
SWIDTH 550 0
DWIDTH 22 0
BBX 20 20 1 0
BITMAP
7801E0
3C03C0
3E03C0
1F0780
0F0F00
079E00
07DE00
03FC00
01F800
00F000
01F800
03FC00
03BC00
079E00
0F1F00
1E0F80
3E0780
3C03C0
7803E0
F001F0
ENDCHAR
STARTCHAR 0079
ENCODING 121
SWIDTH 525 0
DWIDTH 21 0
BBX 20 28 1 -8
BITMAP
F000F0
F001E0
7801E0
7801C0
3C03C0
3C03C0
3E0780
1E0780
1E0780
0F0F00
0F0F00
0F9E00
079E00
079E00
03FC00
03FC00
01F800
01F800
01F800
00F000
00F000
00E000
01E000
01E000
01C000
03C000
038000
078000
ENDCHAR
STARTCHAR 007A
ENCODING 122
SWIDTH 475 0
DWIDTH 19 0
BBX 15 20 2 0
BITMAP
7FFE
7FFE
7FFE
003E
007C
0078
00F0
01F0
03E0
03C0
0780
0F80
1F00
1E00
3C00
7C00
F800
FFFE
FFFE
FFFE
ENDCHAR
STARTCHAR 007B
ENCODING 123
SWIDTH 475 0
DWIDTH 19 0
BBX 13 41 3 -10
BITMAP
0018
01F8
03F8
03E0
0780
0780
0780
0700
0700
0700
0700
0780
0780
0700
0700
0700
0F00
1F00
3E00
FC00
F800
FC00
7E00
1E00
0F00
0F00
0700
0700
0700
0780
0780
0700
0700
0700
0700
0780
0780
03C0
03F8
01F8
0078
ENDCHAR
STARTCHAR 007C
ENCODING 124
SWIDTH 350 0
DWIDTH 14 0
BBX 2 43 6 -11
BITMAP
C0
C0
C0
C0
C0
C0
C0
C0
C0
C0
C0
C0
C0
C0
C0
C0
C0
C0
C0
C0
C0
C0
C0
C0
C0
C0
C0
C0
C0
C0
C0
C0
C0
C0
C0
C0
C0
C0
C0
C0
C0
C0
C0
ENDCHAR
STARTCHAR 007D
ENCODING 125
SWIDTH 475 0
DWIDTH 19 0
BBX 13 41 3 -10
BITMAP
C000
FC00
FE00
1E00
0F00
0F00
0700
0700
0700
0700
0700
0780
0780
0780
0780
0780
0780
03C0
03E0
01F8
00F8
01F8
01F0
03C0
03C0
0780
0780
0780
0780
0780
0780
0700
0700
0700
0700
0700
0F00
1F00
FE00
FC00
F000
ENDCHAR
STARTCHAR 007E
ENCODING 126
SWIDTH 525 0
DWIDTH 21 0
BBX 21 5 0 8
BITMAP
020038
1FF078
3FFFF0
787FE0
F00F80
ENDCHAR
STARTCHAR 00A0
ENCODING 160
SWIDTH 300 0
DWIDTH 12 0
BBX 0 0 0 0
BITMAP
ENDCHAR
STARTCHAR 00A1
ENCODING 161
SWIDTH 350 0
DWIDTH 14 0
BBX 4 28 5 -8
BITMAP
F0
F0
F0
F0
00
00
F0
F0
F0
F0
F0
F0
F0
F0
F0
F0
F0
F0
F0
F0
F0
F0
F0
F0
F0
F0
F0
F0
ENDCHAR
STARTCHAR 00A2
ENCODING 162
SWIDTH 575 0
DWIDTH 23 0
BBX 17 31 3 -6
BITMAP
000C00
000C00
001800
001800
001800
0FF800
3FFE00
3E3F00
787700
786700
F06780
F06000
F0C000
F0C000
F0C000
F18000
F18000
F18000
F30780
F30780
7B0700
7E0F00
3E1E00
1FFE00
0FF800
0C0000
0C0000
1C0000
180000
180000
080000
ENDCHAR
STARTCHAR 00A3
ENCODING 163
SWIDTH 575 0
DWIDTH 23 0
BBX 20 31 2 0
BITMAP
001000
01FF00
07FFC0
0F87E0
0F01E0
1E00F0
1E00F0
1E0000
1E0000
1E0000
1E0000
1E0000
FFF800
FFF800
FFF800
1E0000
1E0000
1E0000
1E0000
1E0000
1E0000
1E0000
1E0000
1E0000
1E0000
1E0000
1E0000
1E0000
FFFFE0
FFFFE0
FFFFE0
ENDCHAR
STARTCHAR 00A4
ENCODING 164
SWIDTH 625 0
DWIDTH 25 0
BBX 21 22 2 7
BITMAP
C00018
E00038
603030
33FE60
3FFFE0
1F07C0
1C01C0
1800C0
3800E0
300060
300060
300060
300060
3800E0
1800C0
1C01C0
0E0380
1FFFC0
3BFEE0
70F870
E00038
C00018
ENDCHAR
STARTCHAR 00A5
ENCODING 165
SWIDTH 575 0
DWIDTH 23 0
BBX 21 30 1 0
BITMAP
F00078
F80078
7800F0
7C00F0
3C01F0
3E01E0
1E01E0
1E03C0
0F03C0
0F0780
FF87F8
FF8FF8
FFCFF8
03CF00
01FE00
01FC00
FFFFF8
FFFFF8
FFFFF8
007800
007800
007800
007800
007800
007800
007800
007800
007800
007800
007800
ENDCHAR
STARTCHAR 00A6
ENCODING 166
SWIDTH 350 0
DWIDTH 14 0
BBX 2 38 6 -8
BITMAP
C0
C0
C0
C0
C0
C0
C0
C0
C0
C0
C0
C0
C0
C0
C0
C0
00
00
00
00
00
00
C0
C0
C0
C0
C0
C0
C0
C0
C0
C0
C0
C0
C0
C0
C0
C0
ENDCHAR
STARTCHAR 00A7
ENCODING 167
SWIDTH 475 0
DWIDTH 19 0
BBX 15 37 2 -6
BITMAP
0FF8
1FF8
3E18
3C00
7800
7800
7800
7800
3C00
3F00
1F80
0FE0
0FF0
3FF8
7C7C
783E
F01E
F01E
F01E
F03C
F878
7FF0
3FE0
1FE0
07F0
01F8
007C
003C
001E
001E
001E
001C
003C
60F8
7FF0
7FE0
0300
ENDCHAR
STARTCHAR 00A8
ENCODING 168
SWIDTH 300 0
DWIDTH 12 0
BBX 12 4 0 26
BITMAP
F0F0
F0F0
F0F0
F0F0
ENDCHAR
STARTCHAR 00A9
ENCODING 169
SWIDTH 850 0
DWIDTH 34 0
BBX 30 30 2 1
BITMAP
003FF000
00FFFC00
03F03F00
07800780
0F0003C0
1C0300E0
383FF070
387FF870
70F87C38
61F01E18
61E01E18
E1E01E1C
C3C0000C
C3C0000C
C3C0000C
C3C0000C
C3C0000C
C3C0000C
C1C01E0C
61E01E18
61E01E18
60F03C38
30FFFC30
383FF870
1C0FE0E0
0E0001C0
07000380
03C00F00
01FFFC00
003FF000
ENDCHAR
STARTCHAR 00AA
ENCODING 170
SWIDTH 400 0
DWIDTH 16 0
BBX 14 19 1 11
BITMAP
0FC0
3FF0
3878
7038
0038
0038
0FF8
3FF8
7838
E038
E038
E078
F0F8
7FB8
1F38
0000
0000
FFFC
FFFC
ENDCHAR
STARTCHAR 00AB
ENCODING 171
SWIDTH 550 0
DWIDTH 22 0
BBX 16 16 3 2
BITMAP
0707
0F0E
0E0E
1C1C
3C3C
3878
7870
F0F0
F0F0
7870
3878
3C3C
1C1C
0E0E
0F0E
0707
ENDCHAR
STARTCHAR 00AC
ENCODING 172
SWIDTH 625 0
DWIDTH 25 0
BBX 21 10 2 8
BITMAP
FFFFF8
FFFFF8
FFFFF8
000018
000018
000018
000018
000018
000018
000018
ENDCHAR
STARTCHAR 00AE
ENCODING 174
SWIDTH 850 0
DWIDTH 34 0
BBX 30 30 2 1
BITMAP
003FF000
00FFFC00
03F03F00
07800780
0E0001C0
1C7FF0E0
387FF870
307FFC30
70701E38
60700E18
60700E18
C0700E0C
C0701C0C
C07FF80C
C07FF00C
C07FF80C
C0701C0C
C0701C0C
C0701C0C
60700C18
60700C18
70700E38
30700E30
38700E70
1C0000E0
0E0001C0
07800780
03F03F00
01FFFC00
003FF000
ENDCHAR
STARTCHAR 00AF
ENCODING 175
SWIDTH 300 0
DWIDTH 12 0
BBX 12 3 0 26
BITMAP
FFF0
FFF0
FFF0
ENDCHAR
STARTCHAR 00B0
ENCODING 176
SWIDTH 325 0
DWIDTH 13 0
BBX 9 9 2 21
BITMAP
3E00
7F00
E380
C180
C180
C180
E380
7F00
3E00
ENDCHAR
STARTCHAR 00B1
ENCODING 177
SWIDTH 1000 0
DWIDTH 40 0
BBX 24 24 8 0
BITMAP
003800
003800
003800
003800
003800
003800
003800
FFFFFF
FFFFFF
FFFFFF
003800
003800
003800
003800
003800
003800
003800
000000
000000
000000
000000
FFFFFF
FFFFFF
FFFFFF
ENDCHAR
STARTCHAR 00B2
ENCODING 178
SWIDTH 350 0
DWIDTH 14 0
BBX 12 16 1 15
BITMAP
1FC0
7FE0
78F0
7070
E070
0070
00E0
01E0
03C0
0780
0E00
3C00
7800
FFF0
FFF0
FFF0
ENDCHAR
STARTCHAR 00B3
ENCODING 179
SWIDTH 350 0
DWIDTH 14 0
BBX 12 16 1 15
BITMAP
3FC0
7FE0
70F0
6070
0070
00F0
07E0
0780
07E0
00F0
0070
E070
E070
7FE0
7FC0
1F80
ENDCHAR
STARTCHAR 00B4
ENCODING 180
SWIDTH 225 0
DWIDTH 9 0
BBX 8 7 2 25
BITMAP
0F
1E
1C
38
38
70
E0
ENDCHAR
STARTCHAR 00B6
ENCODING 182
SWIDTH 550 0
DWIDTH 22 0
BBX 18 36 2 -6
BITMAP
03FFC0
0FFFC0
3FC300
7FC300
7FC300
FFC300
FFC300
FFC300
FFC300
FFC300
FFC300
7FC300
7FC300
3FC300
0FC300
00C300
00C300
00C300
00C300
00C300
00C300
00C300
00C300
00C300
00C300
00C300
00C300
00C300
00C300
00C300
00C300
00C300
00C300
00C300
00C300
00C300
ENDCHAR
STARTCHAR 00B7
ENCODING 183
SWIDTH 250 0
DWIDTH 10 0
BBX 4 5 3 11
BITMAP
F0
F0
F0
F0
F0
ENDCHAR
STARTCHAR 00B8
ENCODING 184
SWIDTH 250 0
DWIDTH 10 0
BBX 10 10 2 -10
BITMAP
3000
3000
3E00
3F80
0780
01C0
01C0
03C0
FF80
FE00
ENDCHAR
STARTCHAR 00B9
ENCODING 185
SWIDTH 300 0
DWIDTH 12 0
BBX 7 16 2 14
BITMAP
1E
3E
FE
EE
8E
0E
0E
0E
0E
0E
0E
0E
0E
0E
0E
0E
ENDCHAR
STARTCHAR 00BA
ENCODING 186
SWIDTH 400 0
DWIDTH 16 0
BBX 14 19 1 10
BITMAP
0FC0
3FE0
7870
7038
E038
E01C
E01C
E01C
E01C
E01C
E038
7038
3870
1FE0
0780
0000
0000
FFFC
FFFC
ENDCHAR
STARTCHAR 00BB
ENCODING 187
SWIDTH 550 0
DWIDTH 22 0
BBX 16 16 3 2
BITMAP
E0E0
7070
7878
3838
1C3C
1E1E
0F0E
0F0F
0F0F
0F0E
1E1E
1C3C
3838
7878
7070
E0E0
ENDCHAR
STARTCHAR 00BC
ENCODING 188
SWIDTH 800 0
DWIDTH 32 0
BBX 28 30 2 0
BITMAP
1E000C00
3E001C00
FE003800
EE003800
8E007000
0E007000
0E00E000
0E00C000
0E01C000
0E038000
0E038000
0E070000
0E070000
0E0E0000
0E0C0780
0E1C0780
00380F80
00381F80
00701B80
00703B80
00E07380
00E06380
01C0C380
0181C380
0381FFF0
0701FFF0
07000380
0E000380
0E000380
1C000380
ENDCHAR
STARTCHAR 00BD
ENCODING 189
SWIDTH 800 0
DWIDTH 32 0
BBX 28 30 2 0
BITMAP
1E001C00
3E001C00
FE003800
EE003800
8E007000
0E007000
0E00E000
0E00E000
0E01C000
0E038000
0E038000
0E070000
0E070000
0E0E0000
0E0E1F80
0E1C3FE0
003879E0
00387070
0070F070
00700070
00E000F0
00E000E0
01C003C0
01800780
03800F00
07003C00
07007800
0E00FFF0
0E00FFF0
1C00FFF0
ENDCHAR
STARTCHAR 00BE
ENCODING 190
SWIDTH 800 0
DWIDTH 32 0
BBX 30 31 1 0
BITMAP
000001C0
3FC00380
7FE00380
70F00700
60700600
00700E00
00F01C00
07E01C00
07803800
07E03800
00F07000
00707000
E070E000
E071C000
7FE1C000
7FC381E0
1F8381E0
000703E0
000707E0
000E06E0
000C0CE0
001C1CE0
003818E0
003830E0
007070E0
00707FFC
00E07FFC
00E000E0
01C000E0
018000E0
038000E0
ENDCHAR
STARTCHAR 00BF
ENCODING 191
SWIDTH 525 0
DWIDTH 21 0
BBX 17 28 2 -8
BITMAP
00F000
00F000
00F000
00F000
000000
000000
000000
00F000
00F000
00F000
00F000
01F000
01E000
07C000
0F8000
1F0000
3C0000
780000
F00000
F00000
F00000
F00300
F00380
7C0F80
7FFF00
3FFE00
1FFC00
03F000
ENDCHAR
STARTCHAR 00C0
ENCODING 192
SWIDTH 750 0
DWIDTH 30 0
BBX 28 41 1 0
BITMAP
00F00000
00F00000
00780000
00380000
001C0000
000E0000
000E0000
00070000
00000000
00000000
00000000
000F0000
001F8000
001F8000
003FC000
003FC000
007FC000
0079E000
0079E000
00F1F000
00F0F000
01F0F000
01E0F800
01E07800
03E07C00
03C03C00
07C03C00
07803E00
07801E00
0F801F00
0FFFFF00
1FFFFF80
1FFFFF80
1E000780
3C0003C0
3C0003C0
7C0003E0
780001E0
780001E0
F00000F0
F00000F0
ENDCHAR
STARTCHAR 00C1
ENCODING 193
SWIDTH 750 0
DWIDTH 30 0
BBX 28 41 1 0
BITMAP
0000F000
0000F000
0001E000
0001C000
00038000
00070000
00070000
000E0000
00000000
00000000
00000000
000F0000
001F8000
001F8000
003FC000
003FC000
007FC000
0079E000
0079E000
00F1F000
00F0F000
01F0F000
01E0F800
01E07800
03E07C00
03C03C00
07C03C00
07803E00
07801E00
0F801F00
0FFFFF00
1FFFFF80
1FFFFF80
1E000780
3C0003C0
3C0003C0
7C0003E0
780001E0
780001E0
F00000F0
F00000F0
ENDCHAR
STARTCHAR 00C2
ENCODING 194
SWIDTH 750 0
DWIDTH 30 0
BBX 28 41 1 0
BITMAP
000F0000
001F8000
001F8000
003FC000
0039C000
0070E000
00606000
00E07000
00000000
00000000
00000000
000F0000
001F8000
001F8000
003FC000
003FC000
007FC000
0079E000
0079E000
00F1F000
00F0F000
01F0F000
01E0F800
01E07800
03E07C00
03C03C00
07C03C00
07803E00
07801E00
0F801F00
0FFFFF00
1FFFFF80
1FFFFF80
1E000780
3C0003C0
3C0003C0
7C0003E0
780001E0
780001E0
F00000F0
F00000F0
ENDCHAR
STARTCHAR 00C3
ENCODING 195
SWIDTH 750 0
DWIDTH 30 0
BBX 28 39 1 0
BITMAP
00103000
007E7000
007FE000
00E7E000
00C08000
00000000
00000000
00000000
00000000
000F0000
001F8000
001F8000
003FC000
003FC000
007FC000
0079E000
0079E000
00F1F000
00F0F000
01F0F000
01E0F800
01E07800
03E07C00
03C03C00
07C03C00
07803E00
07801E00
0F801F00
0FFFFF00
1FFFFF80
1FFFFF80
1E000780
3C0003C0
3C0003C0
7C0003E0
780001E0
780001E0
F00000F0
F00000F0
ENDCHAR
STARTCHAR 00C4
ENCODING 196
SWIDTH 750 0
DWIDTH 30 0
BBX 29 39 1 0
BITMAP
00787800
00787800
00787800
00787800
00000000
00000000
00000000
00000000
00000000
000F8000
000F8000
001F8000
001FC000
003FC000
003DE000
007DE000
0079F000
0078F000
00F0F000
00F0F800
01F07800
01E07C00
01E03C00
03E03C00
03C03E00
07C01E00
07801F00
07800F00
0FFFFF80
0FFFFF80
1FFFFF80
1E0003C0
1E0003C0
3C0003E0
3C0001E0
780001E0
780000F0
780000F0
F00000F8
ENDCHAR
STARTCHAR 00C5
ENCODING 197
SWIDTH 750 0
DWIDTH 30 0
BBX 28 43 1 0
BITMAP
000E0000
003F0000
00318000
0060C000
0060C000
0060C000
0060C000
00318000
003F8000
000E0000
00000000
00000000
00000000
001F0000
001F0000
001F8000
003F8000
003FC000
007BC000
007BC000
0079E000
00F1E000
00F1F000
01E0F000
01E0F800
01E07800
03C07800
03C07C00
07C03C00
07803E00
0F801E00
0F001E00
0FFFFF00
1FFFFF00
1FFFFF80
3C000780
3C0007C0
3C0003C0
780003C0
780001E0
F00001E0
F00001F0
F00000F0
ENDCHAR
STARTCHAR 00C6
ENCODING 198
SWIDTH 975 0
DWIDTH 39 0
BBX 37 30 0 0
BITMAP
0001FFFFF0
0001FFFFF0
0003FFFFF0
0003FFFFF0
0007FC0000
0007BC0000
000FBC0000
000F3C0000
001F3C0000
001E3C0000
003E3C0000
003C3C0000
007C3C0000
00783FFFF0
00F83FFFF0
00F03FFFF0
01F03FFFF0
01E03C0000
03E03C0000
03FFFC0000
07FFFC0000
07FFFC0000
0F003C0000
1F003C0000
1E003C0000
3E003C0000
3C003FFFF8
7C003FFFF8
78003FFFF8
F8003FFFF8
ENDCHAR
STARTCHAR 00C7
ENCODING 199
SWIDTH 650 0
DWIDTH 26 0
BBX 22 40 2 -9
BITMAP
01FF80
07FFE0
0FFFF0
1F00F8
3E0078
3C003C
78003C
78003C
780000
700000
F00000
F00000
F00000
F00000
F00000
F00000
F00000
F00000
F00000
F00000
F00000
700000
78003C
78003C
3C003C
3C0078
1F00F8
0FFFF0
07FFE0
03FF80
003000
003000
003E00
003F80
003FC0
0001C0
0001C0
0001C0
00FF80
00FE00
ENDCHAR
STARTCHAR 00C8
ENCODING 200
SWIDTH 600 0
DWIDTH 24 0
BBX 19 41 3 0
BITMAP
1E0000
0F0000
070000
038000
038000
01C000
00E000
006000
000000
000000
000000
FFFFC0
FFFFC0
FFFFC0
FFFFC0
F00000
F00000
F00000
F00000
F00000
F00000
F00000
F00000
F00000
FFFFC0
FFFFC0
FFFFC0
FFFFC0
F00000
F00000
F00000
F00000
F00000
F00000
F00000
F00000
F00000
FFFFE0
FFFFE0
FFFFE0
FFFFE0
ENDCHAR
STARTCHAR 00C9
ENCODING 201
SWIDTH 600 0
DWIDTH 24 0
BBX 19 41 3 0
BITMAP
001E00
003C00
003800
007800
00F000
00E000
01C000
018000
000000
000000
000000
FFFFC0
FFFFC0
FFFFC0
FFFFC0
F00000
F00000
F00000
F00000
F00000
F00000
F00000
F00000
F00000
FFFFC0
FFFFC0
FFFFC0
FFFFC0
F00000
F00000
F00000
F00000
F00000
F00000
F00000
F00000
F00000
FFFFE0
FFFFE0
FFFFE0
FFFFE0
ENDCHAR
STARTCHAR 00CA
ENCODING 202
SWIDTH 600 0
DWIDTH 24 0
BBX 19 41 3 0
BITMAP
01E000
03F000
07F000
077800
0F3800
0E1C00
1C1C00
180E00
000000
000000
000000
FFFFC0
FFFFC0
FFFFC0
FFFFC0
F00000
F00000
F00000
F00000
F00000
F00000
F00000
F00000
F00000
FFFFC0
FFFFC0
FFFFC0
FFFFC0
F00000
F00000
F00000
F00000
F00000
F00000
F00000
F00000
F00000
FFFFE0
FFFFE0
FFFFE0
FFFFE0
ENDCHAR
STARTCHAR 00CB
ENCODING 203
SWIDTH 600 0
DWIDTH 24 0
BBX 19 39 3 0
BITMAP
1E1E00
1E1E00
1E1E00
1E1E00
000000
000000
000000
000000
000000
FFFFC0
FFFFC0
FFFFC0
FFFFC0
F00000
F00000
F00000
F00000
F00000
F00000
F00000
F00000
F00000
FFFFC0
FFFFC0
FFFFC0
FFFFC0
F00000
F00000
F00000
F00000
F00000
F00000
F00000
F00000
F00000
FFFFE0
FFFFE0
FFFFE0
FFFFE0
ENDCHAR
STARTCHAR 00CC
ENCODING 204
SWIDTH 250 0
DWIDTH 10 0
BBX 8 41 -1 0
BITMAP
F0
78
38
1C
1E
0E
07
03
00
00
00
0F
0F
0F
0F
0F
0F
0F
0F
0F
0F
0F
0F
0F
0F
0F
0F
0F
0F
0F
0F
0F
0F
0F
0F
0F
0F
0F
0F
0F
0F
ENDCHAR
STARTCHAR 00CD
ENCODING 205
SWIDTH 250 0
DWIDTH 10 0
BBX 7 41 3 0
BITMAP
1E
1E
3C
38
70
70
E0
C0
00
00
00
F0
F0
F0
F0
F0
F0
F0
F0
F0
F0
F0
F0
F0
F0
F0
F0
F0
F0
F0
F0
F0
F0
F0
F0
F0
F0
F0
F0
F0
F0
ENDCHAR
STARTCHAR 00CE
ENCODING 206
SWIDTH 250 0
DWIDTH 10 0
BBX 12 41 -1 0
BITMAP
0F00
1F00
1F80
3F80
39C0
70E0
60E0
E070
0000
0000
0000
0F00
0F00
0F00
0F00
0F00
0F00
0F00
0F00
0F00
0F00
0F00
0F00
0F00
0F00
0F00
0F00
0F00
0F00
0F00
0F00
0F00
0F00
0F00
0F00
0F00
0F00
0F00
0F00
0F00
0F00
ENDCHAR
STARTCHAR 00CF
ENCODING 207
SWIDTH 275 0
DWIDTH 11 0
BBX 12 39 0 0
BITMAP
F0F0
F0F0
F0F0
F0F0
0000
0000
0000
0000
0000
0F00
0F00
0F00
0F00
0F00
0F00
0F00
0F00
0F00
0F00
0F00
0F00
0F00
0F00
0F00
0F00
0F00
0F00
0F00
0F00
0F00
0F00
0F00
0F00
0F00
0F00
0F00
0F00
0F00
0F00
ENDCHAR
STARTCHAR 00D0
ENCODING 208
SWIDTH 700 0
DWIDTH 28 0
BBX 26 30 0 0
BITMAP
1FFF0000
1FFFE000
1FFFF800
1FFFFC00
1E00FE00
1E003F00
1E001F00
1E000F80
1E000780
1E000780
1E0003C0
1E0003C0
1E0003C0
1E0003C0
FFFC03C0
FFFC03C0
FFFC03C0
1E0003C0
1E0003C0
1E0003C0
1E000780
1E000780
1E000F80
1E001F00
1E003F00
1E00FE00
1FFFFC00
1FFFF800
1FFFE000
1FFF0000
ENDCHAR
STARTCHAR 00D1
ENCODING 209
SWIDTH 700 0
DWIDTH 28 0
BBX 22 39 3 0
BITMAP
008300
03F300
07FF00
073E00
060800
000000
000000
000000
000000
FC003C
FC003C
FE003C
FE003C
FF003C
FF003C
FF803C
F7803C
F7C03C
F3C03C
F3E03C
F1E03C
F1F03C
F0F03C
F0F83C
F0783C
F07C3C
F03C3C
F03E3C
F01E3C
F01F3C
F00F3C
F00FBC
F007BC
F003FC
F003FC
F001FC
F001FC
F000FC
F000FC
ENDCHAR
STARTCHAR 00D2
ENCODING 210
SWIDTH 750 0
DWIDTH 30 0
BBX 26 41 2 0
BITMAP
01E00000
00F00000
00780000
00380000
001C0000
001C0000
000E0000
00070000
00000000
00000000
00000000
01FFE000
03FFF000
0FFFFC00
1FFFFE00
1F003E00
3E001F00
3C000F00
78000780
78000780
70000380
F00003C0
F00003C0
F00003C0
F00003C0
F00003C0
F00003C0
F00003C0
F00003C0
F00003C0
70000380
78000780
78000780
78000F80
3C000F00
3E001F00
1F807E00
0FFFFC00
07FFF800
03FFF000
00FFC000
ENDCHAR
STARTCHAR 00D3
ENCODING 211
SWIDTH 750 0
DWIDTH 30 0
BBX 26 41 2 0
BITMAP
0001E000
0003C000
00078000
00070000
000F0000
000E0000
001C0000
00180000
00000000
00000000
00000000
01FFE000
03FFF000
0FFFFC00
1FFFFE00
1F003E00
3E001F00
3C000F00
78000780
78000780
70000380
F00003C0
F00003C0
F00003C0
F00003C0
F00003C0
F00003C0
F00003C0
F00003C0
F00003C0
70000380
78000780
78000780
78000F80
3C000F00
3E001F00
1F807E00
0FFFFC00
07FFF800
03FFF000
00FFC000
ENDCHAR
STARTCHAR 00D4
ENCODING 212
SWIDTH 750 0
DWIDTH 30 0
BBX 26 41 2 0
BITMAP
001E0000
003F0000
003F0000
007F8000
00738000
00E1C000
00C0E000
01C06000
00000000
00000000
00000000
01FFE000
03FFF000
0FFFFC00
1FFFFE00
1F003E00
3E001F00
3C000F00
78000780
78000780
70000380
F00003C0
F00003C0
F00003C0
F00003C0
F00003C0
F00003C0
F00003C0
F00003C0
F00003C0
70000380
78000780
78000780
78000F80
3C000F00
3E001F00
1F807E00
0FFFFC00
07FFF800
03FFF000
00FFC000
ENDCHAR
STARTCHAR 00D5
ENCODING 213
SWIDTH 750 0
DWIDTH 30 0
BBX 26 39 2 0
BITMAP
00206000
00FCE000
00FFE000
01CFC000
01810000
00000000
00000000
00000000
00000000
01FFE000
03FFF000
0FFFFC00
1FFFFE00
1F003E00
3E001F00
3C000F00
78000780
78000780
70000380
F00003C0
F00003C0
F00003C0
F00003C0
F00003C0
F00003C0
F00003C0
F00003C0
F00003C0
70000380
78000780
78000780
78000F80
3C000F00
3E001F00
1F807E00
0FFFFC00
07FFF800
03FFF000
00FFC000
ENDCHAR
STARTCHAR 00D6
ENCODING 214
SWIDTH 750 0
DWIDTH 30 0
BBX 26 39 2 0
BITMAP
00F0F000
00F0F000
00F0F000
00F0F000
00000000
00000000
00000000
00000000
00000000
01FFE000
03FFF000
0FFFFC00
1FFFFE00
1F003E00
3E001F00
3C000F00
78000780
78000780
70000380
F00003C0
F00003C0
F00003C0
F00003C0
F00003C0
F00003C0
F00003C0
F00003C0
F00003C0
70000380
78000780
78000780
78000F80
3C000F00
3E001F00
1F807E00
0FFFFC00
07FFF800
03FFF000
00FFC000
ENDCHAR
STARTCHAR 00D7
ENCODING 215
SWIDTH 1000 0
DWIDTH 40 0
BBX 22 22 9 1
BITMAP
600018
F0003C
780078
380070
1C00E0
0E01C0
070380
038700
01CE00
00FC00
007800
007800
00FC00
01CE00
038700
070380
0E01C0
1C00E0
380070
700038
600018
400008
ENDCHAR
STARTCHAR 00D8
ENCODING 216
SWIDTH 750 0
DWIDTH 30 0
BBX 26 38 2 -4
BITMAP
00000100
00000380
000003C0
00000780
00FFC780
03FFFF00
0FFFFF00
1FFFFE00
1F003E00
3E007F00
7C007F00
7800FF80
7801F780
F001E380
F003C3C0
F007C3C0
F00783C0
F00F03C0
F01F03C0
F01E03C0
F03C03C0
F07C03C0
F0F803C0
70F003C0
79F00780
7BE00780
7FC00F80
3FC00F00
3F801F00
1F807E00
1FFFFC00
1FFFF800
3FFFF000
7CFFC000
78000000
F0000000
70000000
20000000
ENDCHAR
STARTCHAR 00D9
ENCODING 217
SWIDTH 725 0
DWIDTH 29 0
BBX 23 41 3 0
BITMAP
03C000
01C000
01E000
00F000
007000
003800
001800
001C00
000000
000000
000000
F0001E
F0001E
F0001E
F0001E
F0001E
F0001E
F0001E
F0001E
F0001E
F0001E
F0001E
F0001E
F0001E
F0001E
F0001E
F0001E
F0001E
F0001E
F0001E
F0001E
F0001E
F0001E
78003C
78003C
7C007C
3E00F8
3FFFF8
1FFFF0
0FFFE0
03FF80
ENDCHAR
STARTCHAR 00DA
ENCODING 218
SWIDTH 725 0
DWIDTH 29 0
BBX 23 41 3 0
BITMAP
000780
000700
000F00
001E00
001C00
003800
003000
007000
000000
000000
000000
F0001E
F0001E
F0001E
F0001E
F0001E
F0001E
F0001E
F0001E
F0001E
F0001E
F0001E
F0001E
F0001E
F0001E
F0001E
F0001E
F0001E
F0001E
F0001E
F0001E
F0001E
F0001E
78003C
78003C
7C007C
3E00F8
3FFFF8
1FFFF0
0FFFE0
03FF80
ENDCHAR
STARTCHAR 00DB
ENCODING 219
SWIDTH 725 0
DWIDTH 29 0
BBX 23 41 3 0
BITMAP
007C00
007C00
00FE00
00EE00
01C700
01C700
038380
070180
000000
000000
000000
F0001E
F0001E
F0001E
F0001E
F0001E
F0001E
F0001E
F0001E
F0001E
F0001E
F0001E
F0001E
F0001E
F0001E
F0001E
F0001E
F0001E
F0001E
F0001E
F0001E
F0001E
F0001E
78003C
78003C
7C007C
3E00F8
3FFFF8
1FFFF0
0FFFE0
03FF80
ENDCHAR
STARTCHAR 00DC
ENCODING 220
SWIDTH 725 0
DWIDTH 29 0
BBX 23 38 3 0
BITMAP
03C3C0
03C3C0
03C3C0
03C3C0
000000
000000
000000
000000
F0001E
F0001E
F0001E
F0001E
F0001E
F0001E
F0001E
F0001E
F0001E
F0001E
F0001E
F0001E
F0001E
F0001E
F0001E
F0001E
F0001E
F0001E
F0001E
F0001E
F0001E
F0001E
78003C
78003C
7C007C
3E00F8
3FFFF8
1FFFF0
0FFFE0
03FF80
ENDCHAR
STARTCHAR 00DD
ENCODING 221
SWIDTH 650 0
DWIDTH 26 0
BBX 24 41 1 0
BITMAP
0003C0
000780
000700
000F00
000E00
001C00
001800
003000
000000
000000
000000
F8000F
F8001F
7C001E
7C003C
3E007C
1E0078
1F00F8
0F00F0
0F81E0
0781E0
03C3C0
03E3C0
01E780
01F700
00FF00
00FE00
007E00
003C00
003C00
003C00
003C00
003C00
003C00
003C00
003C00
003C00
003C00
003C00
003C00
003C00
ENDCHAR
STARTCHAR 00DE
ENCODING 222
SWIDTH 600 0
DWIDTH 24 0
BBX 19 30 3 0
BITMAP
F00000
F00000
F00000
F00000
F00000
F00000
FFF800
FFFF00
FFFF80
FFFFC0
F00FC0
F003E0
F001E0
F001E0
F001E0
F001E0
F001E0
F003E0
F00FC0
FFFFC0
FFFF80
FFFF00
FFF800
F00000
F00000
F00000
F00000
F00000
F00000
F00000
ENDCHAR
STARTCHAR 00DF
ENCODING 223
SWIDTH 550 0
DWIDTH 22 0
BBX 20 30 2 0
BITMAP
03F800
0FFE00
3FFF00
7C0F00
F80780
F00780
F00780
F00780
F00F00
F01F00
F03E00
F07C00
F0F800
F0F000
F0F000
F0F800
F07E00
F03F00
F01FC0
F00FE0
F003E0
F001F0
F000F0
F000F0
F3C0F0
F3C0F0
F1E0F0
F1F1E0
F0FFE0
F03F80
ENDCHAR
STARTCHAR 00E0
ENCODING 224
SWIDTH 575 0
DWIDTH 23 0
BBX 18 31 2 0
BITMAP
078000
078000
03C000
01C000
00E000
007000
003000
000000
000000
000000
000000
0FFE00
3FFF00
3E0F80
780780
7803C0
0003C0
0003C0
03FFC0
0FFFC0
3FFFC0
7E03C0
7803C0
F003C0
F003C0
F007C0
F007C0
F80FC0
7C3FC0
3FFBC0
1FE3C0
ENDCHAR
STARTCHAR 00E1
ENCODING 225
SWIDTH 575 0
DWIDTH 23 0
BBX 18 32 2 0
BITMAP
003C00
003C00
007800
00F000
00E000
01C000
018000
038000
000000
000000
000000
000000
0FFE00
3FFF00
3E0F80
780780
7803C0
0003C0
0003C0
03FFC0
0FFFC0
3FFFC0
7E03C0
7803C0
F003C0
F003C0
F007C0
F007C0
F80FC0
7C3FC0
3FFBC0
1FE3C0
ENDCHAR
STARTCHAR 00E2
ENCODING 226
SWIDTH 575 0
DWIDTH 23 0
BBX 18 32 2 0
BITMAP
01E000
03F000
03F000
07B800
073C00
0E1C00
0C0E00
1C0600
000000
000000
000000
000000
0FFE00
3FFF00
3E0F80
780780
7803C0
0003C0
0003C0
03FFC0
0FFFC0
3FFFC0
7E03C0
7803C0
F003C0
F003C0
F007C0
F007C0
F80FC0
7C3FC0
3FFBC0
1FE3C0
ENDCHAR
STARTCHAR 00E3
ENCODING 227
SWIDTH 575 0
DWIDTH 23 0
BBX 18 30 2 0
BITMAP
078600
0FCE00
0FFE00
1C7C00
181000
000000
000000
000000
000000
000000
0FFE00
3FFF00
3E0F80
780780
7803C0
0003C0
0003C0
03FFC0
0FFFC0
3FFFC0
7E03C0
7803C0
F003C0
F003C0
F007C0
F007C0
F80FC0
7C3FC0
3FFBC0
1FF3C0
ENDCHAR
STARTCHAR 00E4
ENCODING 228
SWIDTH 575 0
DWIDTH 23 0
BBX 18 30 2 0
BITMAP
1E1E00
1E1E00
1E1E00
1E1E00
000000
000000
000000
000000
000000
000000
0FFE00
3FFF00
3E0F80
780780
7803C0
0003C0
0003C0
03FFC0
0FFFC0
3FFFC0
7E03C0
7803C0
F003C0
F003C0
F007C0
F007C0
F80FC0
7C3FC0
3FFBC0
1FE3C0
ENDCHAR
STARTCHAR 00E5
ENCODING 229
SWIDTH 575 0
DWIDTH 23 0
BBX 18 34 2 0
BITMAP
01E000
03F000
061800
0C0C00
0C0C00
0C0C00
0C0C00
061800
03F000
01E000
000000
000000
000000
000000
0FFE00
3FFF00
3E0F80
780780
7803C0
0003C0
0003C0
03FFC0
0FFFC0
3FFFC0
7E03C0
7803C0
F003C0
F003C0
F007C0
F007C0
F80FC0
7C3FC0
3FFBC0
1FE3C0
ENDCHAR
STARTCHAR 00E6
ENCODING 230
SWIDTH 900 0
DWIDTH 36 0
BBX 32 20 2 1
BITMAP
0FF81FF0
3FFE3FF8
7C1E783C
7807701E
7807E00E
0003E00F
0003C00F
007FFFFF
1FFFFFFF
3FFFFFFF
7E03C000
7803C000
F003C000
F003C00F
F007E00E
F007E01E
F80E701E
7E3E7C7C
3FFC3FF8
1FF00FF0
ENDCHAR
STARTCHAR 00E7
ENCODING 231
SWIDTH 525 0
DWIDTH 21 0
BBX 17 30 2 -9
BITMAP
0FFC00
1FFE00
3E1F00
780F80
780780
F00780
F00000
F00000
F00000
F00000
F00000
F00000
F00000
F00780
700780
780780
780F00
3E1F00
1FFE00
0FFC00
018000
018000
01F000
01FC00
01FE00
000E00
000E00
000E00
07FC00
07F000
ENDCHAR
STARTCHAR 00E8
ENCODING 232
SWIDTH 550 0
DWIDTH 22 0
BBX 18 32 2 0
BITMAP
1E0000
0F0000
070000
038000
03C000
01C000
00E000
006000
000000
000000
000000
000000
07FC00
1FFE00
3E1F00
3C0780
780380
7003C0
F003C0
F003C0
FFFFC0
FFFFC0
FFFFC0
F00000
F00000
F00000
7003C0
780780
380780
3E1F00
1FFE00
07FC00
ENDCHAR
STARTCHAR 00E9
ENCODING 233
SWIDTH 550 0
DWIDTH 22 0
BBX 18 32 2 0
BITMAP
001E00
003C00
007800
007000
00E000
00E000
01C000
018000
000000
000000
000000
000000
07FC00
1FFE00
3E1F00
3C0780
780380
7003C0
F003C0
F003C0
FFFFC0
FFFFC0
FFFFC0
F00000
F00000
F00000
7003C0
780780
380780
3E1F00
1FFE00
07FC00
ENDCHAR
STARTCHAR 00EA
ENCODING 234
SWIDTH 550 0
DWIDTH 22 0
BBX 18 32 2 0
BITMAP
01E000
03F000
03F000
07F800
073800
0E1C00
0C0C00
1C0E00
000000
000000
000000
000000
07FC00
1FFE00
3E1F00
3C0780
780380
7003C0
F003C0
F003C0
FFFFC0
FFFFC0
FFFFC0
F00000
F00000
F00000
7003C0
780780
380780
3E1F00
1FFE00
07FC00
ENDCHAR
STARTCHAR 00EB
ENCODING 235
SWIDTH 550 0
DWIDTH 22 0
BBX 18 30 2 0
BITMAP
1E1E00
1E1E00
1E1E00
1E1E00
000000
000000
000000
000000
000000
000000
07FC00
1FFE00
3E0F00
3C0780
780380
7003C0
F003C0
F003C0
FFFFC0
FFFFC0
FFFFC0
F00000
F00000
F00000
7003C0
780380
3C0780
3E0F00
1FFE00
07FC00
ENDCHAR
STARTCHAR 00EC
ENCODING 236
SWIDTH 250 0
DWIDTH 10 0
BBX 8 32 -1 0
BITMAP
F0
78
38
1C
1E
0E
07
03
00
00
00
00
0F
0F
0F
0F
0F
0F
0F
0F
0F
0F
0F
0F
0F
0F
0F
0F
0F
0F
0F
0F
ENDCHAR
STARTCHAR 00ED
ENCODING 237
SWIDTH 250 0
DWIDTH 10 0
BBX 9 32 2 0
BITMAP
0F80
0F00
1E00
1C00
3800
3800
7000
E000
0000
0000
0000
0000
7800
7800
7800
7800
7800
7800
7800
7800
7800
7800
7800
7800
7800
7800
7800
7800
7800
7800
7800
7800
ENDCHAR
STARTCHAR 00EE
ENCODING 238
SWIDTH 250 0
DWIDTH 10 0
BBX 12 32 -1 0
BITMAP
0F00
1F80
1F80
3BC0
39C0
70E0
E060
C070
0000
0000
0000
0000
0F00
0F00
0F00
0F00
0F00
0F00
0F00
0F00
0F00
0F00
0F00
0F00
0F00
0F00
0F00
0F00
0F00
0F00
0F00
0F00
ENDCHAR
STARTCHAR 00EF
ENCODING 239
SWIDTH 250 0
DWIDTH 10 0
BBX 12 30 -1 0
BITMAP
F0F0
F0F0
F0F0
F0F0
0000
0000
0000
0000
0000
0000
0F00
0F00
0F00
0F00
0F00
0F00
0F00
0F00
0F00
0F00
0F00
0F00
0F00
0F00
0F00
0F00
0F00
0F00
0F00
0F00
ENDCHAR
STARTCHAR 00F0
ENCODING 240
SWIDTH 600 0
DWIDTH 24 0
BBX 20 30 2 0
BITMAP
100100
3C0700
1E1F00
07FC00
03F000
07F000
3E7800
783C00
601E00
000F00
07FF80
1FFFC0
3F0FC0
3C03C0
7801E0
7801E0
F001E0
F000F0
F000F0
F000F0
F000F0
F000F0
F000F0
F001E0
7801E0
7803E0
3C03C0
3F0F80
1FFF00
07FE00
ENDCHAR
STARTCHAR 00F1
ENCODING 241
SWIDTH 600 0
DWIDTH 24 0
BBX 18 30 3 0
BITMAP
070E00
0FCC00
1FFC00
1CF800
181000
000000
000000
000000
000000
000000
F3FE00
F7FF00
FE1F80
F80780
F80780
F003C0
F003C0
F003C0
F003C0
F003C0
F003C0
F003C0
F003C0
F003C0
F003C0
F003C0
F003C0
F003C0
F003C0
F003C0
ENDCHAR
STARTCHAR 00F2
ENCODING 242
SWIDTH 600 0
DWIDTH 24 0
BBX 20 32 2 0
BITMAP
0F0000
078000
038000
01C000
01C000
00E000
007000
003000
000000
000000
000000
000000
07FC00
0FFF00
3F0F80
3C03C0
7803E0
7801E0
F001E0
F000F0
F000F0
F000F0
F000F0
F000F0
F000F0
F001E0
7801E0
7803E0
3C03C0
3F0F80
0FFF00
07FE00
ENDCHAR
STARTCHAR 00F3
ENCODING 243
SWIDTH 600 0
DWIDTH 24 0
BBX 20 32 2 0
BITMAP
001E00
001E00
003C00
003800
007000
006000
00E000
01C000
000000
000000
000000
000000
07FC00
0FFF00
3F0F80
3C03C0
7803E0
7801E0
F001E0
F000F0
F000F0
F000F0
F000F0
F000F0
F000F0
F001E0
7801E0
7803E0
3C03C0
3F0F80
0FFF00
07FE00
ENDCHAR
STARTCHAR 00F4
ENCODING 244
SWIDTH 600 0
DWIDTH 24 0
BBX 20 32 2 0
BITMAP
00F000
01F800
01F800
03BC00
039C00
070E00
060600
0C0700
000000
000000
000000
000000
07FC00
0FFF00
3F0F80
3C03C0
7803E0
7801E0
F001E0
F000F0
F000F0
F000F0
F000F0
F000F0
F000F0
F001E0
7801E0
7803E0
3C03C0
3F0F80
0FFF00
07FE00
ENDCHAR
STARTCHAR 00F5
ENCODING 245
SWIDTH 600 0
DWIDTH 24 0
BBX 20 30 2 0
BITMAP
038700
07E600
0FFE00
0E7C00
0C0800
000000
000000
000000
000000
000000
07FC00
0FFF00
3F0F80
3C03C0
7803E0
7801E0
F001E0
F000F0
F000F0
F000F0
F000F0
F000F0
F000F0
F001E0
7801E0
7803E0
3C03C0
3F0F80
0FFF00
07FE00
ENDCHAR
STARTCHAR 00F6
ENCODING 246
SWIDTH 600 0
DWIDTH 24 0
BBX 20 30 2 0
BITMAP
0F0F00
0F0F00
0F0F00
0F0F00
000000
000000
000000
000000
000000
000000
07FC00
0FFF00
3F0F80
3C03C0
7803E0
7801E0
F001E0
F000F0
F000F0
F000F0
F000F0
F000F0
F000F0
F001E0
7801E0
7803E0
3C03C0
3F0F80
0FFF00
07FE00
ENDCHAR
STARTCHAR 00F7
ENCODING 247
SWIDTH 1000 0
DWIDTH 40 0
BBX 24 19 8 2
BITMAP
001000
003800
007C00
007C00
007C00
000000
000000
000000
FFFFFF
FFFFFF
FFFFFF
000000
000000
000000
003800
007C00
007C00
007C00
003800
ENDCHAR
STARTCHAR 00F8
ENCODING 248
SWIDTH 600 0
DWIDTH 24 0
BBX 21 26 1 -2
BITMAP
000038
000078
000070
03FFE0
07FFC0
1F87C0
1E03E0
3C07F0
3C0FF0
780EF0
781C78
783878
787878
787078
78E078
79C078
7BC0F0
3F80F0
3F01F0
1E01E0
0F87C0
1FFF80
3BFF00
700000
F00000
600000
ENDCHAR
STARTCHAR 00F9
ENCODING 249
SWIDTH 600 0
DWIDTH 24 0
BBX 18 32 3 0
BITMAP
1E0000
0F0000
070000
038000
03C000
01C000
00E000
006000
000000
000000
000000
000000
F003C0
F003C0
F003C0
F003C0
F003C0
F003C0
F003C0
F003C0
F003C0
F003C0
F003C0
F003C0
F003C0
F003C0
F003C0
F007C0
7807C0
7C1FC0
3FFBC0
1FF3C0
ENDCHAR
STARTCHAR 00FA
ENCODING 250
SWIDTH 600 0
DWIDTH 24 0
BBX 18 32 3 0
BITMAP
003E00
003C00
007800
007000
00E000
00E000
01C000
038000
000000
000000
000000
000000
F003C0
F003C0
F003C0
F003C0
F003C0
F003C0
F003C0
F003C0
F003C0
F003C0
F003C0
F003C0
F003C0
F003C0
F003C0
F007C0
7807C0
7C1FC0
3FFBC0
1FF3C0
ENDCHAR
STARTCHAR 00FB
ENCODING 251
SWIDTH 600 0
DWIDTH 24 0
BBX 18 32 3 0
BITMAP
01E000
03F000
03F000
077800
073800
0E1C00
1C0C00
180E00
000000
000000
000000
000000
F003C0
F003C0
F003C0
F003C0
F003C0
F003C0
F003C0
F003C0
F003C0
F003C0
F003C0
F003C0
F003C0
F003C0
F003C0
F007C0
7807C0
7C1FC0
3FFBC0
1FF3C0
ENDCHAR
STARTCHAR 00FC
ENCODING 252
SWIDTH 600 0
DWIDTH 24 0
BBX 18 30 3 0
BITMAP
1E1E00
1E1E00
1E1E00
1E1E00
000000
000000
000000
000000
000000
000000
F003C0
F003C0
F003C0
F003C0
F003C0
F003C0
F003C0
F003C0
F003C0
F003C0
F003C0
F003C0
F003C0
F003C0
F003C0
F007C0
780FC0
7E1FC0
3FFBC0
1FF3C0
ENDCHAR
STARTCHAR 00FD
ENCODING 253
SWIDTH 525 0
DWIDTH 21 0
BBX 20 40 1 -8
BITMAP
000F00
001E00
001C00
003800
007000
007000
00E000
000000
000000
000000
000000
000000
F000F0
F001E0
7801E0
7801C0
3C03C0
3C03C0
3E0780
1E0780
1E0700
0F0F00
0F0F00
0F9E00
079E00
079C00
03FC00
03FC00
01F800
01F800
01F800
00F000
00F000
00E000
01E000
21E000
F3C000
7FC000
7F8000
1F0000
ENDCHAR
STARTCHAR 00FE
ENCODING 254
SWIDTH 600 0
DWIDTH 24 0
BBX 19 38 3 -8
BITMAP
F00000
F00000
F00000
F00000
F00000
F00000
F00000
F00000
F00000
F00000
F3FE00
F7FF00
FE0F80
FC07C0
F803C0
F803C0
F001E0
F001E0
F001E0
F001E0
F001E0
F001E0
F001E0
F001E0
F803C0
F803C0
FC07C0
FE0F80
F7FF00
F3FE00
F00000
F00000
F00000
F00000
F00000
F00000
F00000
F00000
ENDCHAR
STARTCHAR 00FF
ENCODING 255
SWIDTH 550 0
DWIDTH 22 0
BBX 20 38 1 -8
BITMAP
0F0F00
0F0F00
0F0F00
0F0F00
000000
000000
000000
000000
000000
000000
F000F0
F800E0
7801E0
7801E0
3C03C0
3C03C0
3E0380
1E0780
1E0780
0F0F00
0F0F00
078F00
079E00
07DE00
03FC00
03FC00
01FC00
01F800
00F800
00F000
00F000
00F000
01E000
01E000
01C000
03C000
03C000
038000
ENDCHAR
STARTCHAR 0131
ENCODING 305
SWIDTH 250 0
DWIDTH 10 0
BBX 4 20 3 0
BITMAP
F0
F0
F0
F0
F0
F0
F0
F0
F0
F0
F0
F0
F0
F0
F0
F0
F0
F0
F0
F0
ENDCHAR
STARTCHAR 0141
ENCODING 321
SWIDTH 575 0
DWIDTH 23 0
BBX 21 30 1 0
BITMAP
0F0000
0F0000
0F0000
0F0000
0F0000
0F0000
0F0800
0F3800
0F7800
0FF000
0FE000
0FC000
0F8000
0F0000
0F0000
1F0000
3F0000
7F0000
EF0000
CF0000
8F0000
0F0000
0F0000
0F0000
0F0000
0F0000
0FFFF8
0FFFF8
0FFFF8
0FFFF8
ENDCHAR
STARTCHAR 0142
ENCODING 322
SWIDTH 350 0
DWIDTH 14 0
BBX 11 30 2 0
BITMAP
1E00
1E00
1E00
1E00
1E00
1E00
1E20
1E40
1E60
1EE0
1FC0
1F80
1F00
1E00
1E00
3E00
7E00
FE00
DE00
9E00
1E00
1E00
1E00
1E00
1E00
1E00
1E00
1E00
1E00
1E00
ENDCHAR
STARTCHAR 0152
ENCODING 338
SWIDTH 1000 0
DWIDTH 40 0
BBX 36 30 2 1
BITMAP
00FFFFFFF0
03FFFFFFF0
07FFFFFFF0
0FFFFFFFF0
1F807E0000
3E001E0000
3C001E0000
7C001E0000
78001E0000
78001E0000
F0001E0000
F0001E0000
F0001E0000
F0001FFFE0
F0001FFFE0
F0001FFFE0
F0001FFFE0
F0001E0000
F0001E0000
F0001E0000
78001E0000
78001E0000
7C001E0000
3C001E0000
3E001E0000
1F807E0000
0FFFFFFFF0
07FFFFFFF0
03FFFFFFF0
00FFFFFFF0
ENDCHAR
STARTCHAR 0153
ENCODING 339
SWIDTH 925 0
DWIDTH 37 0
BBX 33 20 2 1
BITMAP
07FC0FF800
1FFE1FFC00
3E1F3C1E00
3C07F80F00
7803F00700
7803E00780
F003E00780
F001E00780
F001FFFF80
F001FFFF80
F001FFFF80
F001E00000
F001E00000
F003E00000
7803F00780
7803F00780
3C07F80F00
3E1F3C1E00
1FFE3FFC00
07FC0FF800
ENDCHAR
STARTCHAR 0160
ENCODING 352
SWIDTH 650 0
DWIDTH 26 0
BBX 22 41 2 0
BITMAP
070380
038380
038700
01CE00
01FE00
00FC00
00FC00
000000
000000
000000
000000
03FF00
0FFFC0
3FFFE0
3FFFF0
7C01F0
780078
F00078
F00078
F00000
F00000
780000
7C0000
3F8000
1FFC00
0FFF80
00FFE0
0007F0
0000F8
000078
000038
00003C
F0003C
F0003C
F0003C
780078
7C00F8
3FFFF0
3FFFF0
1FFFC0
07FF00
ENDCHAR
STARTCHAR 0161
ENCODING 353
SWIDTH 500 0
DWIDTH 20 0
BBX 16 32 2 0
BITMAP
381C
1C38
1C38
0E70
0FF0
07E0
07E0
03C0
0000
0000
0000
0000
1FF8
3FFE
7C3E
F80F
F00F
F000
F000
7C00
7FC0
3FF8
0FFE
007E
001F
000F
F00F
F00F
F01F
7C3E
7FFC
1FF8
ENDCHAR
STARTCHAR 0178
ENCODING 376
SWIDTH 675 0
DWIDTH 27 0
BBX 25 39 1 0
BITMAP
01E1E000
01E1E000
01E1E000
01E1E000
00000000
00000000
00000000
00000000
00000000
F8000780
7C000F80
3C000F00
3E001F00
1F001E00
1F003C00
0F807C00
07807800
07C0F800
03C0F000
03E1E000
01E1E000
00F3C000
00FBC000
007F8000
007F0000
003F0000
001E0000
001E0000
001E0000
001E0000
001E0000
001E0000
001E0000
001E0000
001E0000
001E0000
001E0000
001E0000
001E0000
ENDCHAR
STARTCHAR 017D
ENCODING 381
SWIDTH 625 0
DWIDTH 25 0
BBX 21 41 2 0
BITMAP
060300
070700
030E00
038E00
01DC00
01FC00
00F800
00F800
000000
000000
000000
7FFFF8
7FFFF8
7FFFF8
7FFFF8
0000F8
0001F8
0001F0
0003E0
0007C0
000F80
001F80
001F00
003E00
007C00
00FC00
00F800
01F000
03E000
07C000
0FC000
0F8000
1F0000
3E0000
7E0000
FC0000
F80000
FFFFF8
FFFFF8
FFFFF8
FFFFF8
ENDCHAR
STARTCHAR 017E
ENCODING 382
SWIDTH 475 0
DWIDTH 19 0
BBX 15 32 2 0
BITMAP
7038
3030
3870
1CE0
1FE0
0FC0
0FC0
0780
0000
0000
0000
0000
7FFE
7FFE
7FFE
003E
007C
0078
00F0
01F0
03E0
03C0
0780
0F80
1F00
1E00
3C00
7C00
F800
FFFE
FFFE
FFFE
ENDCHAR
STARTCHAR 0192
ENCODING 402
SWIDTH 500 0
DWIDTH 20 0
BBX 24 39 -3 -9
BITMAP
00003F
0000FF
0000FE
0001E0
0003C0
0003C0
000380
000780
000780
000700
007FF8
00FFF8
00FFF8
000E00
000E00
001E00
001E00
001C00
001C00
003C00
003C00
003800
003800
007800
007800
007000
00F000
00F000
00F000
00E000
01E000
01E000
01C000
03C000
03C000
078000
7F0000
FE0000
FC0000
ENDCHAR
STARTCHAR 02C6
ENCODING 710
SWIDTH 300 0
DWIDTH 12 0
BBX 11 7 0 25
BITMAP
1F00
1F80
3F80
39C0
71C0
70E0
E060
ENDCHAR
STARTCHAR 02C7
ENCODING 711
SWIDTH 300 0
DWIDTH 12 0
BBX 11 7 0 25
BITMAP
E060
70E0
71C0
39C0
3F80
1F80
1F00
ENDCHAR
STARTCHAR 02D8
ENCODING 728
SWIDTH 275 0
DWIDTH 11 0
BBX 11 5 0 25
BITMAP
C060
F0E0
7FC0
3F80
0400
ENDCHAR
STARTCHAR 02D9
ENCODING 729
SWIDTH 100 0
DWIDTH 4 0
BBX 4 4 0 25
BITMAP
F0
F0
F0
F0
ENDCHAR
STARTCHAR 02DA
ENCODING 730
SWIDTH 225 0
DWIDTH 9 0
BBX 9 9 0 25
BITMAP
3C00
7F00
E300
C180
C180
C180
E300
7F00
3C00
ENDCHAR
STARTCHAR 02DB
ENCODING 731
SWIDTH 200 0
DWIDTH 8 0
BBX 7 9 0 -9
BITMAP
10
30
60
E0
E0
E0
FE
FE
7E
ENDCHAR
STARTCHAR 02DC
ENCODING 732
SWIDTH 300 0
DWIDTH 12 0
BBX 12 4 0 26
BITMAP
3C70
7FE0
FFE0
C3C0
ENDCHAR
STARTCHAR 02DD
ENCODING 733
SWIDTH 300 0
DWIDTH 12 0
BBX 12 7 0 25
BITMAP
1CF0
38E0
39C0
71C0
7180
6380
C300
ENDCHAR
STARTCHAR 0394
ENCODING 916
SWIDTH 650 0
DWIDTH 26 0
BBX 25 28 0 0
BITMAP
00040000
00040000
000E0000
000E0000
001F0000
001F0000
003F0000
003F8000
00678000
0067C000
00E3C000
00C3E000
00C3E000
0181E000
0181F000
0300F000
0300F800
0600F800
06007800
0C007C00
0C003C00
18003E00
18001E00
30001F00
30001F00
60000F00
7FFFFF80
FFFFFF80
ENDCHAR
STARTCHAR 03A9
ENCODING 937
SWIDTH 800 0
DWIDTH 32 0
BBX 29 28 1 0
BITMAP
003FE000
00F87C00
03C00F00
07800780
0F0003C0
1E0001E0
3E0001F0
3C0001F0
7C0000F0
7C0000F8
7C0000F8
7C0000F8
7C0000F8
7C0000F8
7C0000F8
3C0000F0
3E0001F0
3E0001E0
1E0003E0
0F0003C0
07800F80
01E01E00
80703008
80303008
FFF03FF8
FFF07FF8
FFF07FF8
FFF07FF8
ENDCHAR
STARTCHAR 03BC
ENCODING 956
SWIDTH 625 0
DWIDTH 25 0
BBX 22 28 3 -8
BITMAP
F003C0
F003C0
F003C0
F003C0
F003C0
F003C0
F003C0
F003C0
F003C0
F003C0
F003C0
F003C0
F003C0
F003C0
F003C0
F003C0
F807C0
F80FC0
FF7FFC
FFF9FC
F7E0F8
F00000
F00000
F00000
F00000
F00000
F00000
F00000
ENDCHAR
STARTCHAR 03C0
ENCODING 960
SWIDTH 575 0
DWIDTH 23 0
BBX 22 21 0 -1
BITMAP
0FFFFC
3FFFFC
3FFFFC
738300
438300
838300
038300
038700
038700
030700
070700
070700
070700
070700
070704
0F0704
1E078C
3E07F8
3E03F8
3E03F0
1C01E0
ENDCHAR
STARTCHAR 2013
ENCODING 8211
SWIDTH 500 0
DWIDTH 20 0
BBX 20 3 0 9
BITMAP
FFFFF0
FFFFF0
FFFFF0
ENDCHAR
STARTCHAR 2014
ENCODING 8212
SWIDTH 1000 0
DWIDTH 40 0
BBX 40 3 0 9
BITMAP
FFFFFFFFFF
FFFFFFFFFF
FFFFFFFFFF
ENDCHAR
STARTCHAR 2018
ENCODING 8216
SWIDTH 250 0
DWIDTH 10 0
BBX 7 10 2 20
BITMAP
0E
1C
1C
3C
3C
78
78
78
F8
F0
ENDCHAR
STARTCHAR 2019
ENCODING 8217
SWIDTH 250 0
DWIDTH 10 0
BBX 6 10 2 20
BITMAP
3C
3C
7C
78
78
70
F0
E0
E0
E0
ENDCHAR
STARTCHAR 201A
ENCODING 8218
SWIDTH 250 0
DWIDTH 10 0
BBX 6 10 2 -5
BITMAP
3C
3C
7C
78
78
70
F0
E0
E0
E0
ENDCHAR
STARTCHAR 201C
ENCODING 8220
SWIDTH 425 0
DWIDTH 17 0
BBX 14 10 2 20
BITMAP
0E1C
1C1C
1C38
3C38
3C78
7878
78F0
78F0
F9F0
F1F0
ENDCHAR
STARTCHAR 201D
ENCODING 8221
SWIDTH 425 0
DWIDTH 17 0
BBX 14 10 2 20
BITMAP
3C7C
3C78
7C78
78F0
78F0
70F0
F0E0
E1E0
E1C0
E1C0
ENDCHAR
STARTCHAR 201E
ENCODING 8222
SWIDTH 425 0
DWIDTH 17 0
BBX 14 10 2 -5
BITMAP
3C7C
3C78
7C78
78F0
78F0
70F0
F0E0
E1E0
E1C0
E1C0
ENDCHAR
STARTCHAR 2020
ENCODING 8224
SWIDTH 575 0
DWIDTH 23 0
BBX 19 36 2 -6
BITMAP
01E000
01E000
01E000
01E000
01E000
01E000
01E000
01E000
01E000
01E000
FFFFE0
FFFFE0
FFFFE0
01E000
01E000
01E000
01E000
01E000
01E000
01E000
01E000
01E000
01E000
01E000
01E000
01E000
01E000
01E000
01E000
01E000
01E000
01E000
01E000
01E000
01E000
01E000
ENDCHAR
STARTCHAR 2021
ENCODING 8225
SWIDTH 575 0
DWIDTH 23 0
BBX 19 36 2 -6
BITMAP
01E000
01E000
01E000
01E000
01E000
01E000
01E000
01E000
01E000
01E000
FFFFE0
FFFFE0
FFFFE0
01E000
01E000
01E000
01E000
01E000
01E000
01E000
01E000
01E000
01E000
01E000
FFFFE0
FFFFE0
FFFFE0
01E000
01E000
01E000
01E000
01E000
01E000
01E000
01E000
01E000
ENDCHAR
STARTCHAR 2022
ENCODING 8226
SWIDTH 275 0
DWIDTH 11 0
BBX 9 9 1 9
BITMAP
3E00
7F00
FF80
FF80
FF80
FF80
FF80
7F00
3E00
ENDCHAR
STARTCHAR 2026
ENCODING 8230
SWIDTH 1000 0
DWIDTH 40 0
BBX 36 5 2 0
BITMAP
F000F000F0
F000F000F0
F000F000F0
F000F000F0
F000F000F0
ENDCHAR
STARTCHAR 2030
ENCODING 8240
SWIDTH 1325 0
DWIDTH 53 0
BBX 49 31 2 0
BITMAP
000000E0000000
0FC000C0000000
1FF001C0000000
3FF80180000000
783C0300000000
F03C0700000000
F01E0600000000
F01E0E00000000
F01E0C00000000
F01E1C00000000
F01E1800000000
F01C3800000000
703C3000000000
787C7000000000
3FF8E000000000
1FF0C060006000
0381C3FC03FC00
000187FE07FE00
00038F0F0F0F00
00030E070E0700
00071E079E0780
00061E079E0780
000E1E079E0780
001C1E079E0780
001C1E079E0780
00381E079E0780
00381E079E0780
00700F0F0F0F00
00600FFE07FE00
00E007FC03FC00
00C001F801F800
ENDCHAR
STARTCHAR 2039
ENCODING 8249
SWIDTH 350 0
DWIDTH 14 0
BBX 8 16 3 2
BITMAP
07
0F
0E
1C
3C
38
78
F0
F0
78
38
3C
1C
0E
0F
07
ENDCHAR
STARTCHAR 203A
ENCODING 8250
SWIDTH 350 0
DWIDTH 14 0
BBX 8 16 3 2
BITMAP
E0
70
78
38
1C
1E
0F
0F
0F
0F
1E
1C
38
78
70
E0
ENDCHAR
STARTCHAR 2044
ENCODING 8260
SWIDTH 550 0
DWIDTH 22 0
BBX 19 31 2 -1
BITMAP
0000E0
0000E0
0001C0
000180
000380
000300
000700
000E00
000E00
001C00
001C00
003800
003000
007000
00E000
00E000
01C000
01C000
038000
030000
070000
060000
0E0000
1C0000
1C0000
380000
380000
700000
600000
E00000
C00000
ENDCHAR
STARTCHAR 2122
ENCODING 8482
SWIDTH 650 0
DWIDTH 26 0
BBX 22 11 2 18
BITMAP
FF9C1C
FF9C1C
181E3C
181E3C
181A2C
181B6C
181B6C
18194C
1819CC
1819CC
18188C
ENDCHAR
STARTCHAR 2202
ENCODING 8706
SWIDTH 550 0
DWIDTH 22 0
BBX 18 32 2 -1
BITMAP
0FC000
3FF000
183C00
000E00
000600
000700
000300
000380
000180
000180
0001C0
0001C0
0001C0
0001C0
01C1C0
0FF1C0
1F0DC0
3C07C0
7803C0
7803C0
7003C0
F00380
F00380
F00780
F00780
F00700
F00F00
700E00
701C00
383C00
1C7800
07E000
ENDCHAR
STARTCHAR 220F
ENCODING 8719
SWIDTH 850 0
DWIDTH 34 0
BBX 33 35 1 -4
BITMAP
FFFFFFFF80
3FFFFFFC00
1F8000F800
0F8000F800
0F8000F800
0F8000F800
0F8000F800
0F8000F800
0F8000F800
0F8000F800
0F8000F800
0F8000F800
0F8000F800
0F8000F800
0F8000F800
0F8000F800
0F8000F800
0F8000F800
0F8000F800
0F8000F800
0F8000F800
0F8000F800
0F8000F800
0F8000F800
0F8000F800
0F8000F800
0F8000F800
0F8000F800
0F8000F800
0F8000F800
0F8000F800
0F8000F800
0F8000F800
1FC001FC00
FFF80FFF80
ENDCHAR
STARTCHAR 2211
ENCODING 8721
SWIDTH 750 0
DWIDTH 30 0
BBX 28 35 1 -4
BITMAP
FFFFFF80
7FFFFF80
3E000780
1F000180
1F800080
0FC00080
07C00080
03E00000
03F00000
01F80000
00F80000
007C0000
007E0000
003F0000
001F0000
000F8000
000FC000
00078000
00030000
00070000
000E0000
001C0000
00180000
00300000
00600000
00C00000
01C00010
03800020
07000020
0E000060
0C0001E0
1FFFFFE0
3FFFFFC0
7FFFFFC0
FFFFFFC0
ENDCHAR
STARTCHAR 2212
ENCODING 8722
SWIDTH 1000 0
DWIDTH 40 0
BBX 24 3 8 11
BITMAP
FFFFFF
FFFFFF
FFFFFF
ENDCHAR
STARTCHAR 221A
ENCODING 8730
SWIDTH 575 0
DWIDTH 23 0
BBX 22 28 1 0
BITMAP
00001C
000030
000030
000020
000020
000060
000060
000040
0000C0
1800C0
780080
DC0080
0C0180
0E0180
060100
070100
038300
038300
01C200
01C600
00E600
00E600
007400
007C00
003C00
003800
001800
001800
ENDCHAR
STARTCHAR 221E
ENCODING 8734
SWIDTH 1000 0
DWIDTH 40 0
BBX 27 12 7 6
BITMAP
1F001E00
3FC07F80
70E0E1C0
E071C0C0
C01F0060
C00E0060
C00E0060
C01B0060
603980C0
70E0E1C0
3FC07F80
0F001E00
ENDCHAR
STARTCHAR 222B
ENCODING 8747
SWIDTH 475 0
DWIDTH 19 0
BBX 17 38 1 -8
BITMAP
001F00
003F80
007F80
006700
00E000
00E000
00E000
00E000
00C000
01C000
01C000
01C000
01C000
01C000
01C000
01C000
01C000
01C000
01C000
01C000
01C000
01C000
01C000
01C000
01C000
01C000
01C000
01C000
01C000
03C000
038000
038000
038000
038000
730000
FF0000
FE0000
780000
ENDCHAR
STARTCHAR 2248
ENCODING 8776
SWIDTH 1000 0
DWIDTH 40 0
BBX 24 12 8 5
BITMAP
0F8001
3FF807
FFFFBF
E01FFE
8003F0
000000
000000
1FC001
3FF807
FFFFBF
E01FFE
8003F0
ENDCHAR
STARTCHAR 2260
ENCODING 8800
SWIDTH 1000 0
DWIDTH 40 0
BBX 24 18 8 3
BITMAP
000018
000038
000070
0000E0
FFFFFF
FFFFFF
000700
000E00
001C00
003800
007000
00FFFF
FFFFFF
FFFFFF
070000
0E0000
1C0000
180000
ENDCHAR
STARTCHAR 2264
ENCODING 8804
SWIDTH 1000 0
DWIDTH 40 0
BBX 24 22 8 0
BITMAP
000007
00003F
0001FE
000FE0
007F00
03F800
3F8000
FC0000
E00000
FC0000
3F8000
03F800
007F00
000FE0
0001FE
00003F
000007
000000
000000
000000
FFFFFF
FFFFFF
ENDCHAR
STARTCHAR 2265
ENCODING 8805
SWIDTH 1000 0
DWIDTH 40 0
BBX 24 22 8 0
BITMAP
E00000
FC0000
7F8000
07F000
00FE00
001FC0
0001FC
00003F
000007
00003F
0001FC
001FE0
00FE00
07F000
7F8000
FC0000
E00000
000000
000000
000000
FFFFFF
FFFFFF
ENDCHAR
STARTCHAR 25CA
ENCODING 9674
SWIDTH 525 0
DWIDTH 21 0
BBX 19 31 1 0
BITMAP
00E000
00F000
01F000
01B800
039800
031C00
070C00
060600
0C0600
1C0300
180380
380180
3001C0
7000C0
6000E0
E00060
6000C0
3000C0
380180
180380
1C0300
0C0700
0E0600
060E00
070C00
031C00
039800
01B800
01F000
00F000
00E000
ENDCHAR
STARTCHAR FB01
ENCODING 64257
SWIDTH 575 0
DWIDTH 23 0
BBX 20 30 1 0
BITMAP
01F0F0
07F0F0
07F0F0
0F00F0
0F0000
0F0000
0F0000
0F0000
0F0000
0F0000
FFF0F0
FFF0F0
FFF0F0
0F00F0
0F00F0
0F00F0
0F00F0
0F00F0
0F00F0
0F00F0
0F00F0
0F00F0
0F00F0
0F00F0
0F00F0
0F00F0
0F00F0
0F00F0
0F00F0
0F00F0
ENDCHAR
STARTCHAR FB02
ENCODING 64258
SWIDTH 600 0
DWIDTH 24 0
BBX 20 30 1 0
BITMAP
01F0F0
07F0F0
07F0F0
0F00F0
0F00F0
0F00F0
0F00F0
0F00F0
0F00F0
0F00F0
FFF0F0
FFF0F0
FFF0F0
0F00F0
0F00F0
0F00F0
0F00F0
0F00F0
0F00F0
0F00F0
0F00F0
0F00F0
0F00F0
0F00F0
0F00F0
0F00F0
0F00F0
0F00F0
0F00F0
0F00F0
ENDCHAR
ENDFONT
